<svg width="776" height="1024" viewBox="0 0 776 1024" fill="none" xmlns="http://www.w3.org/2000/svg">
<mask id="mask0_1_103" style="mask-type:alpha" maskUnits="userSpaceOnUse" x="0" y="0" width="776" height="1024">
<rect x="776" width="1024" height="776" transform="rotate(90 776 0)" fill="#FFFEFE"/>
</mask>
<g mask="url(#mask0_1_103)">
<path d="M517.152 593C404.921 555.8 268.253 583.167 213.948 601.5L161.654 1094H845.999V817C842.647 714.667 820.657 515.2 759.514 536C683.084 562 657.44 639.5 517.152 593Z" fill="#008080"/>
<path d="M212.943 580.5C95.0807 529.3 -6.45648 585.167 -42.4923 619.5L-57.0742 1043H698.672V721C673.698 694.833 598.409 648.7 497.039 673.5C370.327 704.5 360.271 644.5 212.943 580.5Z" fill="#5BB3B3"/>
<path d="M362.282 733C157.934 709.8 21.0311 806 -21.8767 857V1040.5H779.124V560C725.322 627.333 566.63 756.2 362.282 733Z" fill="#D9ECEC"/>
</g>
</svg>
