<svg width="1130" height="312" viewBox="0 0 1130 312" fill="none" xmlns="http://www.w3.org/2000/svg">
<rect x="0.75" y="0.75" width="1128.5" height="310.5" rx="4.25" fill="white" stroke="#D9ECEC" strokeWidth="1.5"/>
<path d="M61 66L1098 66.0001" stroke="#D9D9D9" strokeWidth="1.5"/>
<path d="M61 107L1098 107" stroke="#D9D9D9" strokeWidth="1.5"/>
<path d="M61 146L1098 146" stroke="#D9D9D9" strokeWidth="1.5"/>
<path d="M61 186L1098 186" stroke="#D9D9D9" strokeWidth="1.5"/>
<path d="M61 227L1098 227" stroke="#D9D9D9" strokeWidth="1.5"/>
<path d="M61 266L1098 266" stroke="#D9D9D9" strokeWidth="1.5"/>
<path d="M100.832 278.364H102.241L102.241 286.682C102.241 287.424 102.105 288.055 101.832 288.574C101.56 289.093 101.175 289.487 100.679 289.756C100.183 290.025 99.5975 290.159 98.9233 290.159C98.2869 290.159 97.7206 290.044 97.2244 289.812C96.7282 289.578 96.3381 289.244 96.054 288.812C95.7699 288.381 95.6278 287.867 95.6278 287.273H97.0142C97.0142 287.602 97.0956 287.89 97.2585 288.136C97.4252 288.379 97.6525 288.568 97.9403 288.705C98.2282 288.841 98.5559 288.909 98.9233 288.909C99.3286 288.909 99.6733 288.824 99.9574 288.653C100.241 288.483 100.457 288.233 100.605 287.903C100.757 287.57 100.832 287.163 100.832 286.682L100.832 278.364ZM107.452 290.205C106.899 290.205 106.397 290.1 105.946 289.892C105.495 289.68 105.137 289.375 104.872 288.977C104.607 288.576 104.474 288.091 104.474 287.523C104.474 287.023 104.573 286.617 104.77 286.307C104.967 285.992 105.23 285.746 105.56 285.568C105.889 285.39 106.253 285.258 106.651 285.17C107.052 285.08 107.455 285.008 107.861 284.955C108.391 284.886 108.821 284.835 109.151 284.801C109.484 284.763 109.726 284.701 109.878 284.614C110.033 284.527 110.111 284.375 110.111 284.159L110.111 284.114C110.111 283.553 109.957 283.117 109.651 282.807C109.348 282.496 108.887 282.341 108.27 282.341C107.63 282.341 107.128 282.481 106.764 282.761C106.401 283.042 106.145 283.341 105.997 283.659L104.724 283.205C104.952 282.674 105.255 282.261 105.634 281.966C106.016 281.667 106.433 281.458 106.884 281.341C107.338 281.22 107.785 281.159 108.224 281.159C108.505 281.159 108.827 281.193 109.19 281.261C109.558 281.326 109.912 281.46 110.253 281.665C110.598 281.869 110.884 282.178 111.111 282.591C111.338 283.004 111.452 283.557 111.452 284.25L111.452 290H110.111L110.111 288.818H110.043C109.952 289.008 109.8 289.21 109.588 289.426C109.376 289.642 109.094 289.826 108.741 289.977C108.389 290.129 107.959 290.205 107.452 290.205ZM107.656 289C108.187 289 108.634 288.896 108.997 288.688C109.365 288.479 109.641 288.21 109.827 287.881C110.016 287.551 110.111 287.205 110.111 286.841L110.111 285.614C110.054 285.682 109.929 285.744 109.736 285.801C109.546 285.854 109.327 285.902 109.077 285.943C108.83 285.981 108.59 286.015 108.355 286.045C108.124 286.072 107.937 286.095 107.793 286.114C107.444 286.159 107.118 286.233 106.815 286.335C106.516 286.434 106.274 286.583 106.088 286.784C105.906 286.981 105.815 287.25 105.815 287.591C105.815 288.057 105.988 288.409 106.332 288.648C106.681 288.883 107.122 289 107.656 289ZM115.24 284.75L115.24 290H113.899L113.899 281.273H115.195L115.195 282.636H115.308C115.513 282.193 115.823 281.837 116.24 281.568C116.657 281.295 117.195 281.159 117.854 281.159C118.445 281.159 118.962 281.28 119.405 281.523C119.848 281.761 120.193 282.125 120.439 282.614C120.685 283.098 120.808 283.712 120.808 284.455L120.808 290H119.467L119.467 284.545C119.467 283.86 119.289 283.326 118.933 282.943C118.577 282.557 118.089 282.364 117.467 282.364C117.039 282.364 116.657 282.456 116.32 282.642C115.986 282.828 115.723 283.098 115.53 283.455C115.337 283.811 115.24 284.242 115.24 284.75Z" fill="#333333"/>
<path d="M358.629 290H357.151L361.424 278.364H362.879L367.151 290H365.674L362.197 280.205H362.106L358.629 290ZM359.174 285.455H365.129L365.129 286.705H359.174L359.174 285.455ZM368.782 293.273L368.782 281.273H370.077L370.077 282.659H370.237C370.335 282.508 370.471 282.314 370.646 282.08C370.824 281.841 371.077 281.629 371.407 281.443C371.74 281.254 372.191 281.159 372.759 281.159C373.494 281.159 374.142 281.343 374.702 281.71C375.263 282.078 375.701 282.598 376.015 283.273C376.329 283.947 376.487 284.742 376.487 285.659C376.487 286.583 376.329 287.384 376.015 288.062C375.701 288.737 375.265 289.259 374.708 289.631C374.151 289.998 373.509 290.182 372.782 290.182C372.221 290.182 371.772 290.089 371.435 289.903C371.098 289.714 370.839 289.5 370.657 289.261C370.475 289.019 370.335 288.818 370.237 288.659H370.123L370.123 293.273H368.782ZM370.1 285.636C370.1 286.295 370.197 286.877 370.39 287.381C370.583 287.881 370.865 288.273 371.237 288.557C371.608 288.837 372.062 288.977 372.6 288.977C373.161 288.977 373.629 288.83 374.004 288.534C374.382 288.235 374.666 287.833 374.856 287.33C375.049 286.822 375.146 286.258 375.146 285.636C375.146 285.023 375.051 284.47 374.862 283.977C374.676 283.481 374.394 283.089 374.015 282.801C373.64 282.509 373.168 282.364 372.6 282.364C372.055 282.364 371.596 282.502 371.225 282.778C370.854 283.051 370.574 283.434 370.384 283.926C370.195 284.415 370.1 284.985 370.1 285.636ZM378.532 290L378.532 281.273H379.827L379.827 282.591H379.918C380.077 282.159 380.365 281.809 380.782 281.54C381.199 281.271 381.668 281.136 382.191 281.136C382.29 281.136 382.413 281.138 382.56 281.142C382.708 281.146 382.82 281.152 382.896 281.159L382.896 282.523C382.85 282.511 382.746 282.494 382.583 282.472C382.424 282.445 382.255 282.432 382.077 282.432C381.653 282.432 381.274 282.521 380.941 282.699C380.612 282.873 380.35 283.116 380.157 283.426C379.968 283.733 379.873 284.083 379.873 284.477L379.873 290H378.532Z" fill="#333333"/>
<path d="M627.473 278.364H628.882L628.882 286.682C628.882 287.424 628.746 288.055 628.473 288.574C628.2 289.093 627.816 289.487 627.32 289.756C626.823 290.025 626.238 290.159 625.564 290.159C624.928 290.159 624.361 290.044 623.865 289.812C623.369 289.578 622.979 289.244 622.695 288.812C622.411 288.381 622.268 287.867 622.268 287.273H623.655C623.655 287.602 623.736 287.89 623.899 288.136C624.066 288.379 624.293 288.568 624.581 288.705C624.869 288.841 625.196 288.909 625.564 288.909C625.969 288.909 626.314 288.824 626.598 288.653C626.882 288.483 627.098 288.233 627.246 287.903C627.397 287.57 627.473 287.163 627.473 286.682L627.473 278.364ZM637.024 286.432L637.024 281.273H638.365L638.365 290H637.024L637.024 288.523H636.933C636.729 288.966 636.411 289.343 635.979 289.653C635.547 289.96 635.001 290.114 634.342 290.114C633.797 290.114 633.312 289.994 632.888 289.756C632.464 289.513 632.13 289.15 631.888 288.665C631.645 288.176 631.524 287.561 631.524 286.818L631.524 281.273H632.865L632.865 286.727C632.865 287.364 633.043 287.871 633.399 288.25C633.759 288.629 634.217 288.818 634.774 288.818C635.107 288.818 635.446 288.733 635.791 288.562C636.14 288.392 636.431 288.131 636.666 287.778C636.905 287.426 637.024 286.977 637.024 286.432ZM642.162 278.364L642.162 290H640.821L640.821 278.364H642.162Z" fill="#333333"/>
<path d="M891.259 284.182C891.259 285.409 891.037 286.47 890.594 287.364C890.151 288.258 889.543 288.947 888.77 289.432C887.997 289.917 887.115 290.159 886.122 290.159C885.13 290.159 884.247 289.917 883.474 289.432C882.702 288.947 882.094 288.258 881.651 287.364C881.207 286.47 880.986 285.409 880.986 284.182C880.986 282.955 881.207 281.894 881.651 281C882.094 280.106 882.702 279.417 883.474 278.932C884.247 278.447 885.13 278.205 886.122 278.205C887.115 278.205 887.997 278.447 888.77 278.932C889.543 279.417 890.151 280.106 890.594 281C891.037 281.894 891.259 282.955 891.259 284.182ZM889.895 284.182C889.895 283.174 889.726 282.324 889.389 281.631C889.056 280.938 888.603 280.413 888.031 280.057C887.463 279.701 886.827 279.523 886.122 279.523C885.418 279.523 884.779 279.701 884.207 280.057C883.639 280.413 883.187 280.938 882.849 281.631C882.516 282.324 882.349 283.174 882.349 284.182C882.349 285.189 882.516 286.04 882.849 286.733C883.187 287.426 883.639 287.951 884.207 288.307C884.779 288.663 885.418 288.841 886.122 288.841C886.827 288.841 887.463 288.663 888.031 288.307C888.603 287.951 889.056 287.426 889.389 286.733C889.726 286.04 889.895 285.189 889.895 284.182ZM896.991 290.182C896.173 290.182 895.469 289.989 894.878 289.602C894.287 289.216 893.832 288.684 893.514 288.006C893.196 287.328 893.037 286.553 893.037 285.682C893.037 284.795 893.2 284.013 893.526 283.335C893.855 282.653 894.313 282.121 894.901 281.739C895.491 281.352 896.181 281.159 896.969 281.159C897.582 281.159 898.135 281.273 898.628 281.5C899.12 281.727 899.524 282.045 899.838 282.455C900.152 282.864 900.348 283.341 900.423 283.886H899.082C898.98 283.489 898.753 283.136 898.401 282.83C898.052 282.519 897.582 282.364 896.991 282.364C896.469 282.364 896.01 282.5 895.616 282.773C895.226 283.042 894.921 283.422 894.702 283.915C894.486 284.403 894.378 284.977 894.378 285.636C894.378 286.311 894.484 286.898 894.696 287.398C894.912 287.898 895.215 288.286 895.605 288.562C895.999 288.839 896.461 288.977 896.991 288.977C897.34 288.977 897.656 288.917 897.94 288.795C898.224 288.674 898.465 288.5 898.662 288.273C898.859 288.045 898.999 287.773 899.082 287.455H900.423C900.348 287.97 900.16 288.434 899.861 288.847C899.565 289.256 899.173 289.581 898.685 289.824C898.2 290.062 897.635 290.182 896.991 290.182ZM906.179 281.273L906.179 282.409H901.656L901.656 281.273H906.179ZM902.974 279.182H904.315L904.315 287.5C904.315 287.879 904.37 288.163 904.48 288.352C904.594 288.538 904.738 288.663 904.912 288.727C905.09 288.788 905.277 288.818 905.474 288.818C905.622 288.818 905.743 288.811 905.838 288.795C905.933 288.777 906.009 288.761 906.065 288.75L906.338 289.955C906.247 289.989 906.12 290.023 905.957 290.057C905.795 290.095 905.588 290.114 905.338 290.114C904.959 290.114 904.588 290.032 904.224 289.869C903.865 289.706 903.565 289.458 903.327 289.125C903.092 288.792 902.974 288.371 902.974 287.864L902.974 279.182Z" fill="#333333"/>
<path d="M182.909 290L182.909 278.364H189.886L189.886 279.614H184.318L184.318 283.545H189.364L189.364 284.795H184.318L184.318 290H182.909ZM195.136 290.182C194.295 290.182 193.57 289.996 192.96 289.625C192.354 289.25 191.886 288.727 191.557 288.057C191.231 287.383 191.068 286.598 191.068 285.705C191.068 284.811 191.231 284.023 191.557 283.341C191.886 282.655 192.345 282.121 192.932 281.739C193.523 281.352 194.212 281.159 195 281.159C195.455 281.159 195.903 281.235 196.347 281.386C196.79 281.538 197.193 281.784 197.557 282.125C197.92 282.462 198.21 282.909 198.426 283.466C198.642 284.023 198.75 284.708 198.75 285.523L198.75 286.091H192.023L192.023 284.932H197.386C197.386 284.439 197.288 284 197.091 283.614C196.898 283.227 196.621 282.922 196.261 282.699C195.905 282.475 195.485 282.364 195 282.364C194.466 282.364 194.004 282.496 193.614 282.761C193.227 283.023 192.93 283.364 192.722 283.784C192.513 284.205 192.409 284.655 192.409 285.136L192.409 285.909C192.409 286.568 192.523 287.127 192.75 287.585C192.981 288.04 193.301 288.386 193.71 288.625C194.119 288.86 194.595 288.977 195.136 288.977C195.489 288.977 195.807 288.928 196.091 288.83C196.379 288.727 196.627 288.576 196.835 288.375C197.044 288.17 197.205 287.917 197.318 287.614L198.614 287.977C198.477 288.417 198.248 288.803 197.926 289.136C197.604 289.466 197.206 289.723 196.733 289.909C196.259 290.091 195.727 290.182 195.136 290.182ZM200.972 290L200.972 278.364H202.312L202.312 282.659H202.426C202.525 282.508 202.661 282.314 202.835 282.08C203.013 281.841 203.267 281.629 203.597 281.443C203.93 281.254 204.381 281.159 204.949 281.159C205.684 281.159 206.331 281.343 206.892 281.71C207.453 282.078 207.89 282.598 208.205 283.273C208.519 283.947 208.676 284.742 208.676 285.659C208.676 286.583 208.519 287.384 208.205 288.062C207.89 288.737 207.455 289.259 206.898 289.631C206.341 289.998 205.699 290.182 204.972 290.182C204.411 290.182 203.962 290.089 203.625 289.903C203.288 289.714 203.028 289.5 202.847 289.261C202.665 289.019 202.525 288.818 202.426 288.659H202.267L202.267 290H200.972ZM202.29 285.636C202.29 286.295 202.386 286.877 202.58 287.381C202.773 287.881 203.055 288.273 203.426 288.557C203.797 288.837 204.252 288.977 204.79 288.977C205.35 288.977 205.818 288.83 206.193 288.534C206.572 288.235 206.856 287.833 207.045 287.33C207.239 286.822 207.335 286.258 207.335 285.636C207.335 285.023 207.241 284.47 207.051 283.977C206.866 283.481 206.583 283.089 206.205 282.801C205.83 282.509 205.358 282.364 204.79 282.364C204.244 282.364 203.786 282.502 203.415 282.778C203.044 283.051 202.763 283.434 202.574 283.926C202.384 284.415 202.29 284.985 202.29 285.636Z" fill="#333333"/>
<path d="M444.487 278.364H446.169L450.124 288.023H450.26L454.214 278.364H455.896L455.896 290H454.578L454.578 281.159H454.464L450.828 290H449.555L445.919 281.159H445.805L445.805 290H444.487L444.487 278.364ZM461.108 290.205C460.555 290.205 460.053 290.1 459.602 289.892C459.152 289.68 458.794 289.375 458.528 288.977C458.263 288.576 458.131 288.091 458.131 287.523C458.131 287.023 458.229 286.617 458.426 286.307C458.623 285.992 458.886 285.746 459.216 285.568C459.545 285.39 459.909 285.258 460.307 285.17C460.708 285.08 461.112 285.008 461.517 284.955C462.047 284.886 462.477 284.835 462.807 284.801C463.14 284.763 463.383 284.701 463.534 284.614C463.689 284.527 463.767 284.375 463.767 284.159L463.767 284.114C463.767 283.553 463.614 283.117 463.307 282.807C463.004 282.496 462.544 282.341 461.926 282.341C461.286 282.341 460.784 282.481 460.42 282.761C460.057 283.042 459.801 283.341 459.653 283.659L458.381 283.205C458.608 282.674 458.911 282.261 459.29 281.966C459.672 281.667 460.089 281.458 460.54 281.341C460.994 281.22 461.441 281.159 461.881 281.159C462.161 281.159 462.483 281.193 462.847 281.261C463.214 281.326 463.568 281.46 463.909 281.665C464.254 281.869 464.54 282.178 464.767 282.591C464.994 283.004 465.108 283.557 465.108 284.25L465.108 290H463.767L463.767 288.818H463.699C463.608 289.008 463.456 289.21 463.244 289.426C463.032 289.642 462.75 289.826 462.398 289.977C462.045 290.129 461.616 290.205 461.108 290.205ZM461.312 289C461.843 289 462.29 288.896 462.653 288.688C463.021 288.479 463.297 288.21 463.483 287.881C463.672 287.551 463.767 287.205 463.767 286.841L463.767 285.614C463.71 285.682 463.585 285.744 463.392 285.801C463.203 285.854 462.983 285.902 462.733 285.943C462.487 285.981 462.246 286.015 462.011 286.045C461.78 286.072 461.593 286.095 461.449 286.114C461.1 286.159 460.775 286.233 460.472 286.335C460.172 286.434 459.93 286.583 459.744 286.784C459.562 286.981 459.472 287.25 459.472 287.591C459.472 288.057 459.644 288.409 459.989 288.648C460.337 288.883 460.778 289 461.312 289ZM468.107 293.273C467.879 293.273 467.677 293.254 467.499 293.216C467.321 293.182 467.197 293.148 467.129 293.114L467.47 291.932C467.796 292.015 468.084 292.045 468.334 292.023C468.584 292 468.805 291.888 468.999 291.688C469.196 291.491 469.375 291.17 469.538 290.727L469.788 290.045L466.561 281.273H468.016L470.425 288.227H470.516L472.925 281.273H474.379L470.675 291.273C470.508 291.723 470.302 292.097 470.055 292.392C469.809 292.691 469.523 292.913 469.197 293.057C468.875 293.201 468.512 293.273 468.107 293.273Z" fill="#333333"/>
<path d="M703.957 290H702.479L706.752 278.364H708.207L712.479 290H711.002L707.525 280.205H707.434L703.957 290ZM704.502 285.455H710.457L710.457 286.705H704.502L704.502 285.455ZM719.61 286.432L719.61 281.273H720.951L720.951 290H719.61L719.61 288.523H719.519C719.315 288.966 718.996 289.343 718.565 289.653C718.133 289.96 717.587 290.114 716.928 290.114C716.383 290.114 715.898 289.994 715.474 289.756C715.049 289.513 714.716 289.15 714.474 288.665C714.231 288.176 714.11 287.561 714.11 286.818L714.11 281.273H715.451L715.451 286.727C715.451 287.364 715.629 287.871 715.985 288.25C716.345 288.629 716.803 288.818 717.36 288.818C717.693 288.818 718.032 288.733 718.377 288.562C718.726 288.392 719.017 288.131 719.252 287.778C719.491 287.426 719.61 286.977 719.61 286.432ZM726.93 293.455C726.282 293.455 725.725 293.371 725.259 293.205C724.793 293.042 724.405 292.826 724.094 292.557C723.788 292.292 723.543 292.008 723.362 291.705L724.43 290.955C724.551 291.114 724.704 291.295 724.89 291.5C725.076 291.708 725.329 291.888 725.651 292.04C725.977 292.195 726.403 292.273 726.93 292.273C727.634 292.273 728.216 292.102 728.674 291.761C729.132 291.42 729.362 290.886 729.362 290.159L729.362 288.386H729.248C729.149 288.545 729.009 288.742 728.827 288.977C728.649 289.208 728.392 289.415 728.055 289.597C727.721 289.775 727.271 289.864 726.702 289.864C725.998 289.864 725.365 289.697 724.805 289.364C724.248 289.03 723.807 288.545 723.481 287.909C723.159 287.273 722.998 286.5 722.998 285.591C722.998 284.697 723.155 283.919 723.469 283.256C723.784 282.589 724.221 282.074 724.782 281.71C725.343 281.343 725.99 281.159 726.725 281.159C727.293 281.159 727.744 281.254 728.077 281.443C728.415 281.629 728.672 281.841 728.85 282.08C729.032 282.314 729.172 282.508 729.271 282.659H729.407L729.407 281.273H730.702L730.702 290.25C730.702 291 730.532 291.61 730.191 292.08C729.854 292.553 729.399 292.9 728.827 293.119C728.259 293.343 727.627 293.455 726.93 293.455ZM726.884 288.659C727.422 288.659 727.877 288.536 728.248 288.29C728.619 288.044 728.901 287.689 729.094 287.227C729.288 286.765 729.384 286.212 729.384 285.568C729.384 284.939 729.29 284.384 729.1 283.903C728.911 283.422 728.63 283.045 728.259 282.773C727.888 282.5 727.43 282.364 726.884 282.364C726.316 282.364 725.843 282.508 725.464 282.795C725.089 283.083 724.807 283.47 724.617 283.955C724.432 284.439 724.339 284.977 724.339 285.568C724.339 286.174 724.433 286.71 724.623 287.176C724.816 287.638 725.1 288.002 725.475 288.267C725.854 288.528 726.324 288.659 726.884 288.659Z" fill="#333333"/>
<path d="M977.043 278.364L977.043 290H975.679L969.338 280.864H969.224L969.224 290H967.815L967.815 278.364H969.179L975.543 287.523H975.656L975.656 278.364H977.043ZM983.226 290.182C982.438 290.182 981.747 289.994 981.152 289.619C980.561 289.244 980.099 288.72 979.766 288.045C979.436 287.371 979.271 286.583 979.271 285.682C979.271 284.773 979.436 283.979 979.766 283.301C980.099 282.623 980.561 282.097 981.152 281.722C981.747 281.347 982.438 281.159 983.226 281.159C984.014 281.159 984.703 281.347 985.294 281.722C985.889 282.097 986.351 282.623 986.68 283.301C987.014 283.979 987.18 284.773 987.18 285.682C987.18 286.583 987.014 287.371 986.68 288.045C986.351 288.72 985.889 289.244 985.294 289.619C984.703 289.994 984.014 290.182 983.226 290.182ZM983.226 288.977C983.824 288.977 984.317 288.824 984.703 288.517C985.089 288.21 985.375 287.807 985.561 287.307C985.747 286.807 985.839 286.265 985.839 285.682C985.839 285.098 985.747 284.555 985.561 284.051C985.375 283.547 985.089 283.14 984.703 282.83C984.317 282.519 983.824 282.364 983.226 282.364C982.627 282.364 982.135 282.519 981.749 282.83C981.362 283.14 981.076 283.547 980.891 284.051C980.705 284.555 980.612 285.098 980.612 285.682C980.612 286.265 980.705 286.807 980.891 287.307C981.076 287.807 981.362 288.21 981.749 288.517C982.135 288.824 982.627 288.977 983.226 288.977ZM996.051 281.273L992.824 290H991.46L988.233 281.273H989.687L992.097 288.227H992.187L994.597 281.273H996.051Z" fill="#333333"/>
<path d="M270.308 278.364H271.989L275.944 288.023H276.08L280.035 278.364H281.717L281.717 290H280.398L280.398 281.159H280.285L276.648 290H275.376L271.739 281.159H271.626L271.626 290H270.308L270.308 278.364ZM286.928 290.205C286.375 290.205 285.873 290.1 285.423 289.892C284.972 289.68 284.614 289.375 284.349 288.977C284.084 288.576 283.951 288.091 283.951 287.523C283.951 287.023 284.049 286.617 284.246 286.307C284.443 285.992 284.707 285.746 285.036 285.568C285.366 285.39 285.729 285.258 286.127 285.17C286.529 285.08 286.932 285.008 287.337 284.955C287.868 284.886 288.298 284.835 288.627 284.801C288.96 284.763 289.203 284.701 289.354 284.614C289.51 284.527 289.587 284.375 289.587 284.159L289.587 284.114C289.587 283.553 289.434 283.117 289.127 282.807C288.824 282.496 288.364 282.341 287.746 282.341C287.106 282.341 286.604 282.481 286.241 282.761C285.877 283.042 285.621 283.341 285.474 283.659L284.201 283.205C284.428 282.674 284.731 282.261 285.11 281.966C285.493 281.667 285.909 281.458 286.36 281.341C286.815 281.22 287.262 281.159 287.701 281.159C287.981 281.159 288.303 281.193 288.667 281.261C289.034 281.326 289.388 281.46 289.729 281.665C290.074 281.869 290.36 282.178 290.587 282.591C290.815 283.004 290.928 283.557 290.928 284.25L290.928 290H289.587L289.587 288.818H289.519C289.428 289.008 289.277 289.21 289.065 289.426C288.853 289.642 288.57 289.826 288.218 289.977C287.866 290.129 287.436 290.205 286.928 290.205ZM287.133 289C287.663 289 288.11 288.896 288.474 288.688C288.841 288.479 289.118 288.21 289.303 287.881C289.493 287.551 289.587 287.205 289.587 286.841L289.587 285.614C289.531 285.682 289.406 285.744 289.212 285.801C289.023 285.854 288.803 285.902 288.553 285.943C288.307 285.981 288.067 286.015 287.832 286.045C287.601 286.072 287.413 286.095 287.269 286.114C286.921 286.159 286.595 286.233 286.292 286.335C285.993 286.434 285.75 286.583 285.565 286.784C285.383 286.981 285.292 287.25 285.292 287.591C285.292 288.057 285.464 288.409 285.809 288.648C286.157 288.883 286.599 289 287.133 289ZM293.376 290L293.376 281.273H294.671L294.671 282.591H294.762C294.921 282.159 295.209 281.809 295.626 281.54C296.042 281.271 296.512 281.136 297.035 281.136C297.133 281.136 297.256 281.138 297.404 281.142C297.552 281.146 297.664 281.152 297.739 281.159L297.739 282.523C297.694 282.511 297.59 282.494 297.427 282.472C297.268 282.445 297.099 282.432 296.921 282.432C296.497 282.432 296.118 282.521 295.785 282.699C295.455 282.873 295.194 283.116 295.001 283.426C294.811 283.733 294.717 284.083 294.717 284.477L294.717 290H293.376Z" fill="#333333"/>
<path d="M540.692 278.364H542.101L542.101 286.682C542.101 287.424 541.964 288.055 541.692 288.574C541.419 289.093 541.035 289.487 540.538 289.756C540.042 290.025 539.457 290.159 538.783 290.159C538.146 290.159 537.58 290.044 537.084 289.812C536.588 289.578 536.197 289.244 535.913 288.812C535.629 288.381 535.487 287.867 535.487 287.273H536.874C536.874 287.602 536.955 287.89 537.118 288.136C537.285 288.379 537.512 288.568 537.8 288.705C538.088 288.841 538.415 288.909 538.783 288.909C539.188 288.909 539.533 288.824 539.817 288.653C540.101 288.483 540.317 288.233 540.464 287.903C540.616 287.57 540.692 287.163 540.692 286.682L540.692 278.364ZM550.243 286.432L550.243 281.273H551.584L551.584 290H550.243L550.243 288.523H550.152C549.947 288.966 549.629 289.343 549.197 289.653C548.766 289.96 548.22 290.114 547.561 290.114C547.016 290.114 546.531 289.994 546.107 289.756C545.682 289.513 545.349 289.15 545.107 288.665C544.864 288.176 544.743 287.561 544.743 286.818L544.743 281.273H546.084L546.084 286.727C546.084 287.364 546.262 287.871 546.618 288.25C546.978 288.629 547.436 288.818 547.993 288.818C548.326 288.818 548.665 288.733 549.01 288.562C549.358 288.392 549.65 288.131 549.885 287.778C550.124 287.426 550.243 286.977 550.243 286.432ZM555.381 284.75L555.381 290H554.04L554.04 281.273H555.335L555.335 282.636H555.449C555.653 282.193 555.964 281.837 556.381 281.568C556.797 281.295 557.335 281.159 557.994 281.159C558.585 281.159 559.102 281.28 559.545 281.523C559.989 281.761 560.333 282.125 560.58 282.614C560.826 283.098 560.949 283.712 560.949 284.455L560.949 290H559.608L559.608 284.545C559.608 283.86 559.43 283.326 559.074 282.943C558.718 282.557 558.229 282.364 557.608 282.364C557.18 282.364 556.797 282.456 556.46 282.642C556.127 282.828 555.864 283.098 555.67 283.455C555.477 283.811 555.381 284.242 555.381 284.75Z" fill="#333333"/>
<path d="M799.64 281.273C799.572 280.697 799.295 280.25 798.81 279.932C798.326 279.614 797.731 279.455 797.026 279.455C796.511 279.455 796.06 279.538 795.674 279.705C795.291 279.871 794.992 280.1 794.776 280.392C794.564 280.684 794.458 281.015 794.458 281.386C794.458 281.697 794.532 281.964 794.68 282.188C794.831 282.407 795.024 282.591 795.259 282.739C795.494 282.883 795.74 283.002 795.998 283.097C796.255 283.187 796.492 283.261 796.708 283.318L797.89 283.636C798.193 283.716 798.53 283.826 798.901 283.966C799.276 284.106 799.634 284.297 799.975 284.54C800.32 284.778 800.604 285.085 800.827 285.46C801.051 285.835 801.163 286.295 801.163 286.841C801.163 287.47 800.998 288.038 800.668 288.545C800.343 289.053 799.865 289.456 799.237 289.756C798.612 290.055 797.852 290.205 796.958 290.205C796.125 290.205 795.403 290.07 794.793 289.801C794.187 289.532 793.71 289.157 793.362 288.676C793.017 288.195 792.822 287.636 792.776 287H794.231C794.269 287.439 794.416 287.803 794.674 288.091C794.935 288.375 795.265 288.587 795.663 288.727C796.064 288.864 796.496 288.932 796.958 288.932C797.496 288.932 797.979 288.845 798.407 288.67C798.835 288.492 799.174 288.246 799.424 287.932C799.674 287.614 799.799 287.242 799.799 286.818C799.799 286.432 799.691 286.117 799.475 285.875C799.259 285.633 798.975 285.436 798.623 285.284C798.271 285.133 797.89 285 797.481 284.886L796.049 284.477C795.14 284.216 794.42 283.843 793.89 283.358C793.36 282.873 793.094 282.239 793.094 281.455C793.094 280.803 793.271 280.235 793.623 279.75C793.979 279.261 794.456 278.883 795.055 278.614C795.657 278.341 796.329 278.205 797.072 278.205C797.822 278.205 798.488 278.339 799.072 278.608C799.655 278.873 800.117 279.237 800.458 279.699C800.803 280.161 800.985 280.686 801.004 281.273H799.64ZM806.957 290.182C806.116 290.182 805.39 289.996 804.781 289.625C804.174 289.25 803.707 288.727 803.377 288.057C803.051 287.383 802.888 286.598 802.888 285.705C802.888 284.811 803.051 284.023 803.377 283.341C803.707 282.655 804.165 282.121 804.752 281.739C805.343 281.352 806.032 281.159 806.82 281.159C807.275 281.159 807.724 281.235 808.167 281.386C808.61 281.538 809.013 281.784 809.377 282.125C809.741 282.462 810.031 282.909 810.246 283.466C810.462 284.023 810.57 284.708 810.57 285.523L810.57 286.091H803.843L803.843 284.932H809.207C809.207 284.439 809.108 284 808.911 283.614C808.718 283.227 808.442 282.922 808.082 282.699C807.726 282.475 807.305 282.364 806.82 282.364C806.286 282.364 805.824 282.496 805.434 282.761C805.048 283.023 804.75 283.364 804.542 283.784C804.334 284.205 804.229 284.655 804.229 285.136L804.229 285.909C804.229 286.568 804.343 287.127 804.57 287.585C804.801 288.04 805.121 288.386 805.531 288.625C805.94 288.86 806.415 288.977 806.957 288.977C807.309 288.977 807.627 288.928 807.911 288.83C808.199 288.727 808.447 288.576 808.656 288.375C808.864 288.17 809.025 287.917 809.138 287.614L810.434 287.977C810.298 288.417 810.068 288.803 809.746 289.136C809.424 289.466 809.027 289.723 808.553 289.909C808.08 290.091 807.548 290.182 806.957 290.182ZM812.61 293.273L812.61 281.273H813.906L813.906 282.659H814.065C814.163 282.508 814.299 282.314 814.474 282.08C814.652 281.841 814.906 281.629 815.235 281.443C815.568 281.254 816.019 281.159 816.587 281.159C817.322 281.159 817.97 281.343 818.531 281.71C819.091 282.078 819.529 282.598 819.843 283.273C820.157 283.947 820.315 284.742 820.315 285.659C820.315 286.583 820.157 287.384 819.843 288.062C819.529 288.737 819.093 289.259 818.536 289.631C817.979 289.998 817.337 290.182 816.61 290.182C816.049 290.182 815.601 290.089 815.263 289.903C814.926 289.714 814.667 289.5 814.485 289.261C814.303 289.019 814.163 288.818 814.065 288.659H813.951L813.951 293.273H812.61ZM813.928 285.636C813.928 286.295 814.025 286.877 814.218 287.381C814.411 287.881 814.693 288.273 815.065 288.557C815.436 288.837 815.89 288.977 816.428 288.977C816.989 288.977 817.457 288.83 817.832 288.534C818.21 288.235 818.495 287.833 818.684 287.33C818.877 286.822 818.974 286.258 818.974 285.636C818.974 285.023 818.879 284.47 818.69 283.977C818.504 283.481 818.222 283.089 817.843 282.801C817.468 282.509 816.996 282.364 816.428 282.364C815.883 282.364 815.424 282.502 815.053 282.778C814.682 283.051 814.402 283.434 814.212 283.926C814.023 284.415 813.928 284.985 813.928 285.636Z" fill="#333333"/>
<path d="M1061.62 290H1058.03L1058.03 278.364H1061.78C1062.91 278.364 1063.88 278.597 1064.68 279.062C1065.48 279.525 1066.1 280.189 1066.53 281.057C1066.96 281.92 1067.17 282.955 1067.17 284.159C1067.17 285.371 1066.95 286.415 1066.52 287.29C1066.09 288.161 1065.46 288.831 1064.64 289.301C1063.81 289.767 1062.81 290 1061.62 290ZM1059.44 288.75H1061.53C1062.5 288.75 1063.29 288.564 1063.93 288.193C1064.56 287.822 1065.03 287.294 1065.34 286.608C1065.65 285.922 1065.81 285.106 1065.81 284.159C1065.81 283.22 1065.65 282.411 1065.35 281.733C1065.04 281.051 1064.58 280.528 1063.97 280.165C1063.36 279.797 1062.6 279.614 1061.69 279.614H1059.44L1059.44 288.75ZM1073.01 290.182C1072.17 290.182 1071.45 289.996 1070.84 289.625C1070.23 289.25 1069.76 288.727 1069.43 288.057C1069.11 287.383 1068.94 286.598 1068.94 285.705C1068.94 284.811 1069.11 284.023 1069.43 283.341C1069.76 282.655 1070.22 282.121 1070.81 281.739C1071.4 281.352 1072.09 281.159 1072.87 281.159C1073.33 281.159 1073.78 281.235 1074.22 281.386C1074.66 281.538 1075.07 281.784 1075.43 282.125C1075.8 282.462 1076.09 282.909 1076.3 283.466C1076.52 284.023 1076.62 284.708 1076.62 285.523L1076.62 286.091H1069.9L1069.9 284.932H1075.26C1075.26 284.439 1075.16 284 1074.97 283.614C1074.77 283.227 1074.5 282.922 1074.14 282.699C1073.78 282.475 1073.36 282.364 1072.87 282.364C1072.34 282.364 1071.88 282.496 1071.49 282.761C1071.1 283.023 1070.8 283.364 1070.6 283.784C1070.39 284.205 1070.28 284.655 1070.28 285.136L1070.28 285.909C1070.28 286.568 1070.4 287.127 1070.62 287.585C1070.86 288.04 1071.18 288.386 1071.59 288.625C1071.99 288.86 1072.47 288.977 1073.01 288.977C1073.36 288.977 1073.68 288.928 1073.97 288.83C1074.25 288.727 1074.5 288.576 1074.71 288.375C1074.92 288.17 1075.08 287.917 1075.19 287.614L1076.49 287.977C1076.35 288.417 1076.12 288.803 1075.8 289.136C1075.48 289.466 1075.08 289.723 1074.61 289.909C1074.13 290.091 1073.6 290.182 1073.01 290.182ZM1082.21 290.182C1081.39 290.182 1080.69 289.989 1080.1 289.602C1079.51 289.216 1079.05 288.684 1078.73 288.006C1078.41 287.328 1078.26 286.553 1078.26 285.682C1078.26 284.795 1078.42 284.013 1078.74 283.335C1079.07 282.653 1079.53 282.121 1080.12 281.739C1080.71 281.352 1081.4 281.159 1082.19 281.159C1082.8 281.159 1083.35 281.273 1083.85 281.5C1084.34 281.727 1084.74 282.045 1085.06 282.455C1085.37 282.864 1085.57 283.341 1085.64 283.886H1084.3C1084.2 283.489 1083.97 283.136 1083.62 282.83C1083.27 282.519 1082.8 282.364 1082.21 282.364C1081.69 282.364 1081.23 282.5 1080.84 282.773C1080.45 283.042 1080.14 283.422 1079.92 283.915C1079.7 284.403 1079.6 284.977 1079.6 285.636C1079.6 286.311 1079.7 286.898 1079.91 287.398C1080.13 287.898 1080.43 288.286 1080.82 288.562C1081.22 288.839 1081.68 288.977 1082.21 288.977C1082.56 288.977 1082.87 288.917 1083.16 288.795C1083.44 288.674 1083.68 288.5 1083.88 288.273C1084.08 288.045 1084.22 287.773 1084.3 287.455H1085.64C1085.57 287.97 1085.38 288.434 1085.08 288.847C1084.78 289.256 1084.39 289.581 1083.9 289.824C1083.42 290.062 1082.85 290.182 1082.21 290.182Z" fill="#333333"/>
<path d="M34.0302 271.129C33.4516 271.129 32.9315 271.018 32.4698 270.797C32.0112 270.572 31.645 270.264 31.3711 269.874C31.0972 269.483 30.951 269.036 30.9325 268.535H32.3175C32.3513 268.941 32.5314 269.275 32.8576 269.537C33.1838 269.798 33.5747 269.929 34.0302 269.929C34.3933 269.929 34.715 269.846 34.995 269.68C35.2782 269.51 35.4998 269.278 35.6598 268.983C35.8229 268.687 35.9045 268.35 35.9045 267.972C35.9045 267.587 35.8214 267.244 35.6552 266.942C35.489 266.641 35.2597 266.404 34.9673 266.231C34.678 266.059 34.3456 265.971 33.9702 265.968C33.6839 265.968 33.3962 266.017 33.1069 266.116C32.8176 266.214 32.5837 266.344 32.4052 266.504L31.0987 266.31L31.6296 261.545H36.8278V262.769H32.8161L32.516 265.414H32.5714C32.756 265.236 33.0007 265.086 33.3054 264.966C33.6132 264.846 33.9425 264.786 34.2933 264.786C34.8688 264.786 35.3813 264.923 35.8306 265.197C36.283 265.471 36.6385 265.845 36.897 266.319C37.1586 266.79 37.2879 267.331 37.2848 267.944C37.2879 268.556 37.1494 269.103 36.8693 269.583C36.5923 270.063 36.2076 270.441 35.7152 270.718C35.2259 270.992 34.6642 271.129 34.0302 271.129ZM42.2625 271.157C41.5331 271.154 40.9099 270.962 40.3928 270.58C39.8758 270.198 39.4803 269.643 39.2064 268.913C38.9325 268.184 38.7955 267.305 38.7955 266.277C38.7955 265.252 38.9325 264.377 39.2064 263.651C39.4834 262.924 39.8804 262.37 40.3975 261.989C40.9176 261.607 41.5393 261.416 42.2625 261.416C42.9858 261.416 43.6059 261.609 44.123 261.993C44.64 262.375 45.0355 262.929 45.3094 263.655C45.5864 264.378 45.7249 265.252 45.7249 266.277C45.7249 267.308 45.5879 268.189 45.314 268.918C45.0401 269.644 44.6446 270.2 44.1276 270.585C43.6105 270.966 42.9888 271.157 42.2625 271.157ZM42.2625 269.924C42.9027 269.924 43.4028 269.612 43.7629 268.987C44.126 268.362 44.3076 267.459 44.3076 266.277C44.3076 265.493 44.2245 264.829 44.0583 264.288C43.8952 263.743 43.6598 263.33 43.352 263.05C43.0473 262.767 42.6842 262.626 42.2625 262.626C41.6254 262.626 41.1253 262.94 40.7622 263.567C40.399 264.195 40.2159 265.099 40.2128 266.277C40.2128 267.065 40.2944 267.732 40.4575 268.276C40.6237 268.818 40.8591 269.229 41.1638 269.509C41.4685 269.786 41.8347 269.924 42.2625 269.924Z" fill="#BEBEBE"/>
<path d="M34.4964 221.545V231H33.0653V222.977H33.0099L30.7479 224.454V223.087L33.1069 221.545H34.4964ZM40.3455 231.157C39.6161 231.154 38.9929 230.962 38.4759 230.58C37.9588 230.198 37.5633 229.643 37.2894 228.913C37.0155 228.184 36.8786 227.305 36.8786 226.277C36.8786 225.252 37.0155 224.377 37.2894 223.651C37.5664 222.924 37.9634 222.37 38.4805 221.989C39.0006 221.607 39.6223 221.416 40.3455 221.416C41.0688 221.416 41.6889 221.609 42.206 221.993C42.723 222.375 43.1185 222.929 43.3924 223.655C43.6694 224.378 43.8079 225.252 43.8079 226.277C43.8079 227.308 43.6709 228.189 43.397 228.918C43.1231 229.644 42.7276 230.2 42.2106 230.585C41.6935 230.966 41.0719 231.157 40.3455 231.157ZM40.3455 229.924C40.9857 229.924 41.4858 229.612 41.8459 228.987C42.209 228.362 42.3906 227.459 42.3906 226.277C42.3906 225.493 42.3075 224.829 42.1413 224.288C41.9782 223.743 41.7428 223.33 41.435 223.05C41.1303 222.767 40.7672 222.626 40.3455 222.626C39.7085 222.626 39.2083 222.94 38.8452 223.567C38.482 224.195 38.2989 225.099 38.2958 226.277C38.2958 227.065 38.3774 227.732 38.5405 228.276C38.7067 228.818 38.9421 229.229 39.2468 229.509C39.5515 229.786 39.9177 229.924 40.3455 229.924ZM48.7371 231.157C48.0077 231.154 47.3845 230.962 46.8675 230.58C46.3504 230.198 45.9549 229.643 45.681 228.913C45.4071 228.184 45.2702 227.305 45.2702 226.277C45.2702 225.252 45.4071 224.377 45.681 223.651C45.958 222.924 46.355 222.37 46.8721 221.989C47.3922 221.607 48.0139 221.416 48.7371 221.416C49.4604 221.416 50.0805 221.609 50.5976 221.993C51.1146 222.375 51.5101 222.929 51.784 223.655C52.061 224.378 52.1995 225.252 52.1995 226.277C52.1995 227.308 52.0625 228.189 51.7886 228.918C51.5147 229.644 51.1192 230.2 50.6022 230.585C50.0851 230.966 49.4635 231.157 48.7371 231.157ZM48.7371 229.924C49.3773 229.924 49.8774 229.612 50.2375 228.987C50.6006 228.362 50.7822 227.459 50.7822 226.277C50.7822 225.493 50.6991 224.829 50.5329 224.288C50.3698 223.743 50.1344 223.33 49.8266 223.05C49.5219 222.767 49.1588 222.626 48.7371 222.626C48.1001 222.626 47.5999 222.94 47.2368 223.567C46.8736 224.195 46.6905 225.099 46.6874 226.277C46.6874 227.065 46.769 227.732 46.9321 228.276C47.0983 228.818 47.3337 229.229 47.6384 229.509C47.9431 229.786 48.3093 229.924 48.7371 229.924Z" fill="#BEBEBE"/>
<path d="M34.4964 181.545V191H33.0653V182.977H33.0099L30.7479 184.454V183.087L33.1069 181.545H34.4964ZM40.1747 191.129C39.5961 191.129 39.076 191.018 38.6143 190.797C38.1558 190.572 37.7895 190.264 37.5156 189.874C37.2417 189.483 37.0955 189.036 37.0771 188.535H38.462C38.4959 188.941 38.6759 189.275 39.0021 189.537C39.3284 189.798 39.7192 189.929 40.1747 189.929C40.5379 189.929 40.8595 189.846 41.1396 189.68C41.4227 189.51 41.6443 189.278 41.8043 188.983C41.9674 188.687 42.049 188.35 42.049 187.972C42.049 187.587 41.9659 187.244 41.7997 186.942C41.6335 186.641 41.4042 186.404 41.1119 186.231C40.8226 186.059 40.4902 185.971 40.1147 185.968C39.8285 185.968 39.5407 186.017 39.2514 186.116C38.9621 186.214 38.7282 186.344 38.5497 186.504L37.2433 186.31L37.7741 181.545H42.9723V182.769H38.9606L38.6605 185.414H38.7159C38.9006 185.236 39.1452 185.086 39.4499 184.966C39.7577 184.846 40.087 184.786 40.4379 184.786C41.0134 184.786 41.5258 184.923 41.9751 185.197C42.4276 185.471 42.783 185.845 43.0415 186.319C43.3031 186.79 43.4324 187.331 43.4293 187.944C43.4324 188.556 43.2939 189.103 43.0138 189.583C42.7369 190.063 42.3522 190.441 41.8597 190.718C41.3704 190.992 40.8087 191.129 40.1747 191.129ZM48.407 191.157C47.6776 191.154 47.0544 190.962 46.5374 190.58C46.0203 190.198 45.6249 189.643 45.3509 188.913C45.077 188.184 44.9401 187.305 44.9401 186.277C44.9401 185.252 45.077 184.377 45.3509 183.651C45.6279 182.924 46.0249 182.37 46.542 181.989C47.0621 181.607 47.6838 181.416 48.407 181.416C49.1303 181.416 49.7504 181.609 50.2675 181.993C50.7845 182.375 51.18 182.929 51.4539 183.655C51.7309 184.378 51.8694 185.252 51.8694 186.277C51.8694 187.308 51.7325 188.189 51.4585 188.918C51.1846 189.644 50.7892 190.2 50.2721 190.585C49.7551 190.966 49.1334 191.157 48.407 191.157ZM48.407 189.924C49.0472 189.924 49.5473 189.612 49.9074 188.987C50.2706 188.362 50.4521 187.459 50.4521 186.277C50.4521 185.493 50.3691 184.829 50.2029 184.288C50.0397 183.743 49.8043 183.33 49.4965 183.05C49.1919 182.767 48.8287 182.626 48.407 182.626C47.77 182.626 47.2699 182.94 46.9067 183.567C46.5435 184.195 46.3604 185.099 46.3573 186.277C46.3573 187.065 46.4389 187.732 46.602 188.276C46.7682 188.818 47.0036 189.229 47.3083 189.509C47.613 189.786 47.9793 189.924 48.407 189.924Z" fill="#BEBEBE"/>
<path d="M30.9094 151V149.966L34.1087 146.651C34.4503 146.291 34.7319 145.976 34.9535 145.705C35.1781 145.431 35.3459 145.171 35.4567 144.925C35.5675 144.679 35.6229 144.417 35.6229 144.14C35.6229 143.826 35.549 143.555 35.4013 143.327C35.2536 143.097 35.052 142.92 34.7965 142.797C34.5411 142.67 34.2533 142.607 33.9332 142.607C33.5947 142.607 33.2992 142.676 33.0469 142.815C32.7945 142.953 32.6006 143.149 32.4652 143.401C32.3298 143.654 32.2621 143.949 32.2621 144.288H30.9002C30.9002 143.712 31.0326 143.209 31.2972 142.778C31.5619 142.347 31.9251 142.013 32.3867 141.776C32.8484 141.536 33.3731 141.416 33.9609 141.416C34.5549 141.416 35.0781 141.535 35.5305 141.772C35.986 142.006 36.3415 142.326 36.5969 142.732C36.8524 143.135 36.9801 143.591 36.9801 144.098C36.9801 144.449 36.9139 144.792 36.7816 145.128C36.6523 145.463 36.4261 145.837 36.103 146.25C35.7798 146.659 35.3305 147.156 34.755 147.741L32.8761 149.707V149.777H37.1325V151H30.9094ZM42.1737 151.157C41.4442 151.154 40.821 150.962 40.304 150.58C39.7869 150.198 39.3915 149.643 39.1175 148.913C38.8436 148.184 38.7067 147.305 38.7067 146.277C38.7067 145.252 38.8436 144.377 39.1175 143.651C39.3945 142.924 39.7915 142.37 40.3086 141.989C40.8287 141.607 41.4504 141.416 42.1737 141.416C42.8969 141.416 43.517 141.609 44.0341 141.993C44.5511 142.375 44.9466 142.929 45.2205 143.655C45.4975 144.378 45.636 145.252 45.636 146.277C45.636 147.308 45.4991 148.189 45.2251 148.918C44.9512 149.644 44.5558 150.2 44.0387 150.585C43.5217 150.966 42.9 151.157 42.1737 151.157ZM42.1737 149.924C42.8138 149.924 43.3139 149.612 43.674 148.987C44.0372 148.362 44.2188 147.459 44.2188 146.277C44.2188 145.493 44.1357 144.829 43.9695 144.288C43.8063 143.743 43.5709 143.33 43.2631 143.05C42.9585 142.767 42.5953 142.626 42.1737 142.626C41.5366 142.626 41.0365 142.94 40.6733 143.567C40.3101 144.195 40.127 145.099 40.1239 146.277C40.1239 147.065 40.2055 147.732 40.3686 148.276C40.5348 148.818 40.7702 149.229 41.0749 149.509C41.3796 149.786 41.7459 149.924 42.1737 149.924ZM50.5653 151.157C49.8358 151.154 49.2126 150.962 48.6956 150.58C48.1785 150.198 47.7831 149.643 47.5091 148.913C47.2352 148.184 47.0983 147.305 47.0983 146.277C47.0983 145.252 47.2352 144.377 47.5091 143.651C47.7861 142.924 48.1831 142.37 48.7002 141.989C49.2203 141.607 49.842 141.416 50.5653 141.416C51.2885 141.416 51.9086 141.609 52.4257 141.993C52.9427 142.375 53.3382 142.929 53.6121 143.655C53.8891 144.378 54.0276 145.252 54.0276 146.277C54.0276 147.308 53.8907 148.189 53.6167 148.918C53.3428 149.644 52.9474 150.2 52.4303 150.585C51.9133 150.966 51.2916 151.157 50.5653 151.157ZM50.5653 149.924C51.2054 149.924 51.7055 149.612 52.0656 148.987C52.4288 148.362 52.6104 147.459 52.6104 146.277C52.6104 145.493 52.5273 144.829 52.3611 144.288C52.1979 143.743 51.9625 143.33 51.6547 143.05C51.3501 142.767 50.9869 142.626 50.5653 142.626C49.9282 142.626 49.4281 142.94 49.0649 143.567C48.7017 144.195 48.5186 145.099 48.5155 146.277C48.5155 147.065 48.5971 147.732 48.7602 148.276C48.9264 148.818 49.1618 149.229 49.4665 149.509C49.7712 149.786 50.1375 149.924 50.5653 149.924Z" fill="#BEBEBE"/>
<path d="M30.9094 111V109.966L34.1087 106.651C34.4503 106.291 34.7319 105.976 34.9535 105.705C35.1781 105.431 35.3459 105.171 35.4567 104.925C35.5675 104.679 35.6229 104.417 35.6229 104.14C35.6229 103.826 35.549 103.555 35.4013 103.327C35.2536 103.097 35.052 102.92 34.7965 102.797C34.5411 102.67 34.2533 102.607 33.9332 102.607C33.5947 102.607 33.2992 102.676 33.0469 102.815C32.7945 102.953 32.6006 103.149 32.4652 103.401C32.3298 103.654 32.2621 103.949 32.2621 104.288H30.9002C30.9002 103.712 31.0326 103.209 31.2972 102.778C31.5619 102.347 31.9251 102.013 32.3867 101.776C32.8484 101.536 33.3731 101.416 33.9609 101.416C34.5549 101.416 35.0781 101.535 35.5305 101.772C35.986 102.006 36.3415 102.326 36.5969 102.732C36.8524 103.135 36.9801 103.591 36.9801 104.098C36.9801 104.449 36.9139 104.792 36.7816 105.128C36.6523 105.463 36.4261 105.837 36.103 106.25C35.7798 106.659 35.3305 107.156 34.755 107.741L32.8761 109.707V109.777H37.1325V111H30.9094ZM42.0028 111.129C41.4242 111.129 40.9041 111.018 40.4425 110.797C39.9839 110.572 39.6177 110.264 39.3438 109.874C39.0698 109.483 38.9237 109.036 38.9052 108.535H40.2901C40.324 108.941 40.504 109.275 40.8303 109.537C41.1565 109.798 41.5473 109.929 42.0028 109.929C42.366 109.929 42.6876 109.846 42.9677 109.68C43.2508 109.51 43.4724 109.278 43.6325 108.983C43.7956 108.687 43.8771 108.35 43.8771 107.972C43.8771 107.587 43.794 107.244 43.6278 106.942C43.4616 106.641 43.2324 106.404 42.94 106.231C42.6507 106.059 42.3183 105.971 41.9428 105.968C41.6566 105.968 41.3688 106.017 41.0795 106.116C40.7902 106.214 40.5563 106.344 40.3778 106.504L39.0714 106.31L39.6023 101.545H44.8004V102.769H40.7887L40.4886 105.414H40.544C40.7287 105.236 40.9734 105.086 41.2781 104.966C41.5858 104.846 41.9151 104.786 42.266 104.786C42.8415 104.786 43.3539 104.923 43.8033 105.197C44.2557 105.471 44.6112 105.845 44.8697 106.319C45.1313 106.79 45.2605 107.331 45.2575 107.944C45.2605 108.556 45.122 109.103 44.842 109.583C44.565 110.063 44.1803 110.441 43.6879 110.718C43.1985 110.992 42.6368 111.129 42.0028 111.129ZM50.2352 111.157C49.5058 111.154 48.8825 110.962 48.3655 110.58C47.8485 110.198 47.453 109.643 47.1791 108.913C46.9052 108.184 46.7682 107.305 46.7682 106.277C46.7682 105.252 46.9052 104.377 47.1791 103.651C47.4561 102.924 47.8531 102.37 48.3701 101.989C48.8902 101.607 49.5119 101.416 50.2352 101.416C50.9584 101.416 51.5786 101.609 52.0956 101.993C52.6127 102.375 53.0081 102.929 53.282 103.655C53.559 104.378 53.6975 105.252 53.6975 106.277C53.6975 107.308 53.5606 108.189 53.2867 108.918C53.0128 109.644 52.6173 110.2 52.1002 110.585C51.5832 110.966 50.9615 111.157 50.2352 111.157ZM50.2352 109.924C50.8753 109.924 51.3754 109.612 51.7355 108.987C52.0987 108.362 52.2803 107.459 52.2803 106.277C52.2803 105.493 52.1972 104.829 52.031 104.288C51.8679 103.743 51.6324 103.33 51.3247 103.05C51.02 102.767 50.6568 102.626 50.2352 102.626C49.5981 102.626 49.098 102.94 48.7348 103.567C48.3717 104.195 48.1885 105.099 48.1855 106.277C48.1855 107.065 48.267 107.732 48.4301 108.276C48.5963 108.818 48.8318 109.229 49.1365 109.509C49.4411 109.786 49.8074 109.924 50.2352 109.924Z" fill="#BEBEBE"/>
<path d="M34.201 71.1293C33.567 71.1293 33.0007 71.02 32.5021 70.8015C32.0066 70.583 31.6142 70.2798 31.3249 69.892C31.0387 69.5012 30.8848 69.0488 30.8633 68.5348H32.3129C32.3313 68.8149 32.4252 69.058 32.5945 69.2642C32.7668 69.4673 32.9915 69.6243 33.2685 69.7351C33.5455 69.8459 33.8532 69.9013 34.1918 69.9013C34.5642 69.9013 34.8935 69.8366 35.1797 69.7074C35.469 69.5781 35.6952 69.3981 35.8583 69.1673C36.0214 68.9334 36.103 68.6641 36.103 68.3594C36.103 68.0424 36.0214 67.7638 35.8583 67.5238C35.6983 67.2807 35.4628 67.0898 35.152 66.9513C34.8442 66.8129 34.4718 66.7436 34.0348 66.7436H33.2362V65.5803H34.0348C34.3857 65.5803 34.6934 65.5172 34.9581 65.391C35.2259 65.2648 35.4351 65.0894 35.5859 64.8647C35.7367 64.637 35.8121 64.3707 35.8121 64.0661C35.8121 63.7737 35.746 63.5198 35.6136 63.3043C35.4844 63.0858 35.2997 62.915 35.0597 62.7919C34.8227 62.6688 34.5426 62.6072 34.2195 62.6072C33.9117 62.6072 33.6239 62.6642 33.3562 62.7781C33.0915 62.8888 32.8761 63.0489 32.7099 63.2582C32.5437 63.4644 32.4544 63.7121 32.4421 64.0014H31.0618C31.0772 63.4905 31.228 63.0412 31.5142 62.6534C31.8035 62.2656 32.1851 61.9625 32.6591 61.744C33.133 61.5254 33.6593 61.4162 34.2379 61.4162C34.8442 61.4162 35.3674 61.5347 35.8075 61.7717C36.2507 62.0056 36.5923 62.3179 36.8324 62.7088C37.0755 63.0997 37.1955 63.5275 37.1925 63.9922C37.1955 64.5215 37.0478 64.9709 36.7493 65.3402C36.4538 65.7095 36.0599 65.9573 35.5675 66.0835V66.1573C36.1953 66.2527 36.6816 66.502 37.0263 66.9052C37.3741 67.3084 37.5464 67.8085 37.5433 68.4055C37.5464 68.9257 37.4018 69.3919 37.1094 69.8043C36.8201 70.2167 36.4246 70.5414 35.9229 70.7784C35.4213 71.0123 34.8473 71.1293 34.201 71.1293ZM42.5799 71.157C41.8505 71.1539 41.2273 70.9615 40.7102 70.5799C40.1932 70.1983 39.7977 69.6428 39.5238 68.9134C39.2499 68.1839 39.1129 67.3053 39.1129 66.2773C39.1129 65.2525 39.2499 64.3769 39.5238 63.6506C39.8008 62.9242 40.1978 62.3703 40.7148 61.9886C41.235 61.607 41.8567 61.4162 42.5799 61.4162C43.3031 61.4162 43.9233 61.6085 44.4403 61.9933C44.9574 62.3749 45.3529 62.9289 45.6268 63.6552C45.9038 64.3784 46.0423 65.2525 46.0423 66.2773C46.0423 67.3084 45.9053 68.1886 45.6314 68.918C45.3575 69.6443 44.962 70.1998 44.445 70.5845C43.9279 70.9661 43.3062 71.157 42.5799 71.157ZM42.5799 69.9244C43.2201 69.9244 43.7202 69.612 44.0803 68.9872C44.4434 68.3625 44.625 67.4592 44.625 66.2773C44.625 65.4925 44.5419 64.8293 44.3757 64.2876C44.2126 63.7429 43.9772 63.3305 43.6694 63.0504C43.3647 62.7673 43.0015 62.6257 42.5799 62.6257C41.9428 62.6257 41.4427 62.9396 41.0795 63.5675C40.7164 64.1953 40.5333 65.0986 40.5302 66.2773C40.5302 67.0652 40.6117 67.7315 40.7749 68.2763C40.9411 68.8179 41.1765 69.2288 41.4812 69.5089C41.7859 69.7859 42.1521 69.9244 42.5799 69.9244ZM50.9715 71.157C50.2421 71.1539 49.6189 70.9615 49.1018 70.5799C48.5848 70.1983 48.1893 69.6428 47.9154 68.9134C47.6415 68.1839 47.5045 67.3053 47.5045 66.2773C47.5045 65.2525 47.6415 64.3769 47.9154 63.6506C48.1924 62.9242 48.5894 62.3703 49.1064 61.9886C49.6266 61.607 50.2483 61.4162 50.9715 61.4162C51.6948 61.4162 52.3149 61.6085 52.8319 61.9933C53.349 62.3749 53.7445 62.9289 54.0184 63.6552C54.2954 64.3784 54.4339 65.2525 54.4339 66.2773C54.4339 67.3084 54.2969 68.1886 54.023 68.918C53.7491 69.6443 53.3536 70.1998 52.8366 70.5845C52.3195 70.9661 51.6978 71.157 50.9715 71.157ZM50.9715 69.9244C51.6117 69.9244 52.1118 69.612 52.4719 68.9872C52.835 68.3625 53.0166 67.4592 53.0166 66.2773C53.0166 65.4925 52.9335 64.8293 52.7673 64.2876C52.6042 63.7429 52.3688 63.3305 52.061 63.0504C51.7563 62.7673 51.3931 62.6257 50.9715 62.6257C50.3344 62.6257 49.8343 62.9396 49.4711 63.5675C49.108 64.1953 48.9249 65.0986 48.9218 66.2773C48.9218 67.0652 49.0033 67.7315 49.1665 68.2763C49.3327 68.8179 49.5681 69.2288 49.8728 69.5089C50.1775 69.7859 50.5437 69.9244 50.9715 69.9244Z" fill="#BEBEBE"/>
<rect x="96.7988" y="163.286" width="21.3135" height="103.015" fill="url(#paint0_linear_65_1589)"/>
<rect x="183.829" y="132.204" width="21.3135" height="134.098" fill="url(#paint1_linear_65_1589)"/>
<rect x="183.829" y="132.204" width="21.3135" height="134.098" fill="url(#paint2_linear_65_1589)"/>
<rect x="270.859" y="122.435" width="21.3135" height="143.866" fill="url(#paint3_linear_65_1589)"/>
<rect x="357.89" y="76.2559" width="21.3135" height="190.046" fill="url(#paint4_linear_65_1589)"/>
<rect x="444.92" y="161.51" width="21.3135" height="104.792" fill="url(#paint5_linear_65_1589)"/>
<rect x="531.95" y="122.435" width="21.3135" height="143.866" fill="url(#paint6_linear_65_1589)"/>
<rect x="618.98" y="76.2559" width="21.3135" height="190.046" fill="url(#paint7_linear_65_1589)"/>
<rect x="706.011" y="133.092" width="21.3135" height="133.21" fill="url(#paint8_linear_65_1589)"/>
<rect x="793.041" y="111.778" width="21.3135" height="154.523" fill="url(#paint9_linear_65_1589)"/>
<rect x="880.071" y="133.092" width="21.3135" height="133.21" fill="url(#paint10_linear_65_1589)"/>
<rect x="967.102" y="87.8007" width="21.3135" height="178.501" fill="url(#paint11_linear_65_1589)"/>
<rect x="1054.13" y="122.435" width="21.3135" height="143.866" fill="url(#paint12_linear_65_1589)"/>
<defs>
<linearGradient id="paint0_linear_65_1589" x1="107.456" y1="163.286" x2="107.456" y2="266.302" gradientUnits="userSpaceOnUse">
<stop stop-color="#4D2F9E"/>
<stop offset="1" stop-color="#2F1084"/>
</linearGradient>
<linearGradient id="paint1_linear_65_1589" x1="194.486" y1="132.204" x2="194.486" y2="266.302" gradientUnits="userSpaceOnUse">
<stop stop-color="#4D2F9E"/>
<stop offset="1" stop-color="#2F1084"/>
</linearGradient>
<linearGradient id="paint2_linear_65_1589" x1="194.486" y1="132.204" x2="194.486" y2="266.302" gradientUnits="userSpaceOnUse">
<stop stop-color="#4D2F9E"/>
<stop offset="1" stop-color="#2F1084"/>
</linearGradient>
<linearGradient id="paint3_linear_65_1589" x1="281.516" y1="122.435" x2="281.516" y2="266.302" gradientUnits="userSpaceOnUse">
<stop stop-color="#4D2F9E"/>
<stop offset="1" stop-color="#2F1084"/>
</linearGradient>
<linearGradient id="paint4_linear_65_1589" x1="368.546" y1="76.2559" x2="368.546" y2="266.302" gradientUnits="userSpaceOnUse">
<stop stop-color="#4D2F9E"/>
<stop offset="1" stop-color="#2F1084"/>
</linearGradient>
<linearGradient id="paint5_linear_65_1589" x1="455.577" y1="161.51" x2="455.577" y2="266.302" gradientUnits="userSpaceOnUse">
<stop stop-color="#4D2F9E"/>
<stop offset="1" stop-color="#2F1084"/>
</linearGradient>
<linearGradient id="paint6_linear_65_1589" x1="542.607" y1="122.435" x2="542.607" y2="266.302" gradientUnits="userSpaceOnUse">
<stop stop-color="#4D2F9E"/>
<stop offset="1" stop-color="#2F1084"/>
</linearGradient>
<linearGradient id="paint7_linear_65_1589" x1="629.637" y1="76.2559" x2="629.637" y2="266.302" gradientUnits="userSpaceOnUse">
<stop stop-color="#4D2F9E"/>
<stop offset="1" stop-color="#2F1084"/>
</linearGradient>
<linearGradient id="paint8_linear_65_1589" x1="716.668" y1="133.092" x2="716.668" y2="266.302" gradientUnits="userSpaceOnUse">
<stop stop-color="#4D2F9E"/>
<stop offset="1" stop-color="#2F1084"/>
</linearGradient>
<linearGradient id="paint9_linear_65_1589" x1="803.698" y1="111.778" x2="803.698" y2="266.302" gradientUnits="userSpaceOnUse">
<stop stop-color="#4D2F9E"/>
<stop offset="1" stop-color="#2F1084"/>
</linearGradient>
<linearGradient id="paint10_linear_65_1589" x1="890.728" y1="133.092" x2="890.728" y2="266.302" gradientUnits="userSpaceOnUse">
<stop stop-color="#4D2F9E"/>
<stop offset="1" stop-color="#2F1084"/>
</linearGradient>
<linearGradient id="paint11_linear_65_1589" x1="977.758" y1="87.8007" x2="977.758" y2="266.302" gradientUnits="userSpaceOnUse">
<stop stop-color="#4D2F9E"/>
<stop offset="1" stop-color="#2F1084"/>
</linearGradient>
<linearGradient id="paint12_linear_65_1589" x1="1064.79" y1="122.435" x2="1064.79" y2="266.302" gradientUnits="userSpaceOnUse">
<stop stop-color="#4D2F9E"/>
<stop offset="1" stop-color="#2F1084"/>
</linearGradient>
</defs>
</svg>
