<svg width="264" height="264" viewBox="0 0 264 264" fill="none" xmlns="http://www.w3.org/2000/svg">
<circle cx="132" cy="132" r="132" fill="#D9D9D9"/>
<path d="M264 132C264 152.134 259.394 172 250.536 190.08C241.677 208.16 228.8 223.974 212.889 236.312C196.979 248.649 178.457 257.184 158.741 261.263C139.025 265.342 118.637 264.856 99.1376 259.844C79.6379 254.831 61.5433 245.425 46.2382 232.344C30.933 219.263 18.823 202.854 10.8347 184.373C2.84632 165.892 -0.808593 145.829 0.149562 125.718C1.10772 105.607 6.65355 85.9823 16.3627 68.3445L132 132H264Z" fill="#159E1B" fill-opacity="0.8"/>
<path d="M264 132C264 157.026 256.886 181.537 243.486 202.674C230.087 223.811 210.955 240.703 188.321 251.381C165.687 262.06 140.484 266.083 115.65 262.984C90.8169 259.884 67.3762 249.788 48.0615 233.874L132 132H264Z" fill="#4D2F9E" fill-opacity="0.7"/>
<path d="M127.797 72.82V71.02L134.697 62H137.477L130.677 71.02L129.377 70.62H140.477V72.82H127.797ZM135.477 76V72.82L135.557 70.62V67.8H137.997V76H135.477ZM147.411 76.2C146.305 76.2 145.305 75.92 144.411 75.36C143.531 74.8 142.838 73.9867 142.331 72.92C141.825 71.84 141.571 70.5333 141.571 69C141.571 67.4667 141.825 66.1667 142.331 65.1C142.838 64.02 143.531 63.2 144.411 62.64C145.305 62.08 146.305 61.8 147.411 61.8C148.531 61.8 149.531 62.08 150.411 62.64C151.291 63.2 151.985 64.02 152.491 65.1C153.011 66.1667 153.271 67.4667 153.271 69C153.271 70.5333 153.011 71.84 152.491 72.92C151.985 73.9867 151.291 74.8 150.411 75.36C149.531 75.92 148.531 76.2 147.411 76.2ZM147.411 73.94C148.065 73.94 148.631 73.7667 149.111 73.42C149.591 73.06 149.965 72.5133 150.231 71.78C150.511 71.0467 150.651 70.12 150.651 69C150.651 67.8667 150.511 66.94 150.231 66.22C149.965 65.4867 149.591 64.9467 149.111 64.6C148.631 64.24 148.065 64.06 147.411 64.06C146.785 64.06 146.225 64.24 145.731 64.6C145.251 64.9467 144.871 65.4867 144.591 66.22C144.325 66.94 144.191 67.8667 144.191 69C144.191 70.12 144.325 71.0467 144.591 71.78C144.871 72.5133 145.251 73.06 145.731 73.42C146.225 73.7667 146.785 73.94 147.411 73.94ZM162.516 76L172.076 62H174.036L164.476 76H162.516ZM163.676 69.54C163.022 69.54 162.442 69.38 161.936 69.06C161.429 68.74 161.036 68.2933 160.756 67.72C160.476 67.1467 160.336 66.4733 160.336 65.7C160.336 64.9267 160.476 64.2533 160.756 63.68C161.036 63.1067 161.429 62.66 161.936 62.34C162.442 62.02 163.022 61.86 163.676 61.86C164.356 61.86 164.942 62.02 165.436 62.34C165.942 62.66 166.336 63.1067 166.616 63.68C166.896 64.2533 167.036 64.9267 167.036 65.7C167.036 66.4733 166.896 67.1467 166.616 67.72C166.336 68.2933 165.942 68.74 165.436 69.06C164.942 69.38 164.356 69.54 163.676 69.54ZM163.696 68.14C164.229 68.14 164.642 67.9333 164.936 67.52C165.242 67.0933 165.396 66.4867 165.396 65.7C165.396 64.9133 165.242 64.3133 164.936 63.9C164.642 63.4733 164.229 63.26 163.696 63.26C163.162 63.26 162.736 63.4733 162.416 63.9C162.109 64.3267 161.956 64.9267 161.956 65.7C161.956 66.4733 162.109 67.0733 162.416 67.5C162.736 67.9267 163.162 68.14 163.696 68.14ZM172.856 76.14C172.202 76.14 171.622 75.98 171.116 75.66C170.609 75.34 170.216 74.8933 169.936 74.32C169.656 73.7467 169.516 73.0733 169.516 72.3C169.516 71.5267 169.656 70.8533 169.936 70.28C170.216 69.7067 170.609 69.26 171.116 68.94C171.622 68.62 172.202 68.46 172.856 68.46C173.536 68.46 174.122 68.62 174.616 68.94C175.122 69.26 175.516 69.7067 175.796 70.28C176.076 70.8533 176.216 71.5267 176.216 72.3C176.216 73.0733 176.076 73.7467 175.796 74.32C175.516 74.8933 175.122 75.34 174.616 75.66C174.122 75.98 173.536 76.14 172.856 76.14ZM172.856 74.74C173.389 74.74 173.809 74.5267 174.116 74.1C174.422 73.6733 174.576 73.0733 174.576 72.3C174.576 71.5267 174.422 70.9267 174.116 70.5C173.809 70.0733 173.389 69.86 172.856 69.86C172.336 69.86 171.916 70.0733 171.596 70.5C171.289 70.9133 171.136 71.5133 171.136 72.3C171.136 73.0867 171.289 73.6933 171.596 74.12C171.916 74.5333 172.336 74.74 172.856 74.74Z" fill="#301185"/>
<path d="M25.784 145V143.26L31.344 137.98C31.8107 137.54 32.1573 137.153 32.384 136.82C32.6107 136.487 32.7573 136.18 32.824 135.9C32.904 135.607 32.944 135.333 32.944 135.08C32.944 134.44 32.724 133.947 32.284 133.6C31.844 133.24 31.1973 133.06 30.344 133.06C29.664 133.06 29.044 133.18 28.484 133.42C27.9373 133.66 27.464 134.027 27.064 134.52L25.244 133.12C25.7907 132.387 26.524 131.82 27.444 131.42C28.3773 131.007 29.4173 130.8 30.564 130.8C31.5773 130.8 32.4573 130.967 33.204 131.3C33.964 131.62 34.544 132.08 34.944 132.68C35.3573 133.28 35.564 133.993 35.564 134.82C35.564 135.273 35.504 135.727 35.384 136.18C35.264 136.62 35.0373 137.087 34.704 137.58C34.3707 138.073 33.884 138.627 33.244 139.24L28.464 143.78L27.924 142.8H36.104V145H25.784ZM43.4446 145.2C42.3379 145.2 41.3379 144.92 40.4446 144.36C39.5646 143.8 38.8713 142.987 38.3646 141.92C37.8579 140.84 37.6046 139.533 37.6046 138C37.6046 136.467 37.8579 135.167 38.3646 134.1C38.8713 133.02 39.5646 132.2 40.4446 131.64C41.3379 131.08 42.3379 130.8 43.4446 130.8C44.5646 130.8 45.5646 131.08 46.4446 131.64C47.3246 132.2 48.0179 133.02 48.5246 134.1C49.0446 135.167 49.3046 136.467 49.3046 138C49.3046 139.533 49.0446 140.84 48.5246 141.92C48.0179 142.987 47.3246 143.8 46.4446 144.36C45.5646 144.92 44.5646 145.2 43.4446 145.2ZM43.4446 142.94C44.0979 142.94 44.6646 142.767 45.1446 142.42C45.6246 142.06 45.9979 141.513 46.2646 140.78C46.5446 140.047 46.6846 139.12 46.6846 138C46.6846 136.867 46.5446 135.94 46.2646 135.22C45.9979 134.487 45.6246 133.947 45.1446 133.6C44.6646 133.24 44.0979 133.06 43.4446 133.06C42.8179 133.06 42.2579 133.24 41.7646 133.6C41.2846 133.947 40.9046 134.487 40.6246 135.22C40.3579 135.94 40.2246 136.867 40.2246 138C40.2246 139.12 40.3579 140.047 40.6246 140.78C40.9046 141.513 41.2846 142.06 41.7646 142.42C42.2579 142.767 42.8179 142.94 43.4446 142.94ZM58.549 145L68.109 131H70.069L60.509 145H58.549ZM59.709 138.54C59.0557 138.54 58.4757 138.38 57.969 138.06C57.4623 137.74 57.069 137.293 56.789 136.72C56.509 136.147 56.369 135.473 56.369 134.7C56.369 133.927 56.509 133.253 56.789 132.68C57.069 132.107 57.4623 131.66 57.969 131.34C58.4757 131.02 59.0557 130.86 59.709 130.86C60.389 130.86 60.9757 131.02 61.469 131.34C61.9757 131.66 62.369 132.107 62.649 132.68C62.929 133.253 63.069 133.927 63.069 134.7C63.069 135.473 62.929 136.147 62.649 136.72C62.369 137.293 61.9757 137.74 61.469 138.06C60.9757 138.38 60.389 138.54 59.709 138.54ZM59.729 137.14C60.2623 137.14 60.6757 136.933 60.969 136.52C61.2757 136.093 61.429 135.487 61.429 134.7C61.429 133.913 61.2757 133.313 60.969 132.9C60.6757 132.473 60.2623 132.26 59.729 132.26C59.1957 132.26 58.769 132.473 58.449 132.9C58.1423 133.327 57.989 133.927 57.989 134.7C57.989 135.473 58.1423 136.073 58.449 136.5C58.769 136.927 59.1957 137.14 59.729 137.14ZM68.889 145.14C68.2357 145.14 67.6557 144.98 67.149 144.66C66.6423 144.34 66.249 143.893 65.969 143.32C65.689 142.747 65.549 142.073 65.549 141.3C65.549 140.527 65.689 139.853 65.969 139.28C66.249 138.707 66.6423 138.26 67.149 137.94C67.6557 137.62 68.2357 137.46 68.889 137.46C69.569 137.46 70.1557 137.62 70.649 137.94C71.1557 138.26 71.549 138.707 71.829 139.28C72.109 139.853 72.249 140.527 72.249 141.3C72.249 142.073 72.109 142.747 71.829 143.32C71.549 143.893 71.1557 144.34 70.649 144.66C70.1557 144.98 69.569 145.14 68.889 145.14ZM68.889 143.74C69.4223 143.74 69.8423 143.527 70.149 143.1C70.4557 142.673 70.609 142.073 70.609 141.3C70.609 140.527 70.4557 139.927 70.149 139.5C69.8423 139.073 69.4223 138.86 68.889 138.86C68.369 138.86 67.949 139.073 67.629 139.5C67.3223 139.913 67.169 140.513 67.169 141.3C67.169 142.087 67.3223 142.693 67.629 143.12C67.949 143.533 68.369 143.74 68.889 143.74Z" fill="#301185"/>
<path d="M139.797 193.82V192.02L146.697 183H149.477L142.677 192.02L141.377 191.62H152.477V193.82H139.797ZM147.477 197V193.82L147.557 191.62V188.8H149.997V197H147.477ZM159.411 197.2C158.305 197.2 157.305 196.92 156.411 196.36C155.531 195.8 154.838 194.987 154.331 193.92C153.825 192.84 153.571 191.533 153.571 190C153.571 188.467 153.825 187.167 154.331 186.1C154.838 185.02 155.531 184.2 156.411 183.64C157.305 183.08 158.305 182.8 159.411 182.8C160.531 182.8 161.531 183.08 162.411 183.64C163.291 184.2 163.985 185.02 164.491 186.1C165.011 187.167 165.271 188.467 165.271 190C165.271 191.533 165.011 192.84 164.491 193.92C163.985 194.987 163.291 195.8 162.411 196.36C161.531 196.92 160.531 197.2 159.411 197.2ZM159.411 194.94C160.065 194.94 160.631 194.767 161.111 194.42C161.591 194.06 161.965 193.513 162.231 192.78C162.511 192.047 162.651 191.12 162.651 190C162.651 188.867 162.511 187.94 162.231 187.22C161.965 186.487 161.591 185.947 161.111 185.6C160.631 185.24 160.065 185.06 159.411 185.06C158.785 185.06 158.225 185.24 157.731 185.6C157.251 185.947 156.871 186.487 156.591 187.22C156.325 187.94 156.191 188.867 156.191 190C156.191 191.12 156.325 192.047 156.591 192.78C156.871 193.513 157.251 194.06 157.731 194.42C158.225 194.767 158.785 194.94 159.411 194.94ZM174.516 197L184.076 183H186.036L176.476 197H174.516ZM175.676 190.54C175.022 190.54 174.442 190.38 173.936 190.06C173.429 189.74 173.036 189.293 172.756 188.72C172.476 188.147 172.336 187.473 172.336 186.7C172.336 185.927 172.476 185.253 172.756 184.68C173.036 184.107 173.429 183.66 173.936 183.34C174.442 183.02 175.022 182.86 175.676 182.86C176.356 182.86 176.942 183.02 177.436 183.34C177.942 183.66 178.336 184.107 178.616 184.68C178.896 185.253 179.036 185.927 179.036 186.7C179.036 187.473 178.896 188.147 178.616 188.72C178.336 189.293 177.942 189.74 177.436 190.06C176.942 190.38 176.356 190.54 175.676 190.54ZM175.696 189.14C176.229 189.14 176.642 188.933 176.936 188.52C177.242 188.093 177.396 187.487 177.396 186.7C177.396 185.913 177.242 185.313 176.936 184.9C176.642 184.473 176.229 184.26 175.696 184.26C175.162 184.26 174.736 184.473 174.416 184.9C174.109 185.327 173.956 185.927 173.956 186.7C173.956 187.473 174.109 188.073 174.416 188.5C174.736 188.927 175.162 189.14 175.696 189.14ZM184.856 197.14C184.202 197.14 183.622 196.98 183.116 196.66C182.609 196.34 182.216 195.893 181.936 195.32C181.656 194.747 181.516 194.073 181.516 193.3C181.516 192.527 181.656 191.853 181.936 191.28C182.216 190.707 182.609 190.26 183.116 189.94C183.622 189.62 184.202 189.46 184.856 189.46C185.536 189.46 186.122 189.62 186.616 189.94C187.122 190.26 187.516 190.707 187.796 191.28C188.076 191.853 188.216 192.527 188.216 193.3C188.216 194.073 188.076 194.747 187.796 195.32C187.516 195.893 187.122 196.34 186.616 196.66C186.122 196.98 185.536 197.14 184.856 197.14ZM184.856 195.74C185.389 195.74 185.809 195.527 186.116 195.1C186.422 194.673 186.576 194.073 186.576 193.3C186.576 192.527 186.422 191.927 186.116 191.5C185.809 191.073 185.389 190.86 184.856 190.86C184.336 190.86 183.916 191.073 183.596 191.5C183.289 191.913 183.136 192.513 183.136 193.3C183.136 194.087 183.289 194.693 183.596 195.12C183.916 195.533 184.336 195.74 184.856 195.74Z" fill="white"/>
</svg>
