<svg width="77" height="69" viewBox="0 0 77 69" fill="none" xmlns="http://www.w3.org/2000/svg">
<circle cx="38.6324" cy="34.0807" r="24.5846" fill="#159E1B" fill-opacity="0.2"/>
<rect x="26.3398" y="26.398" width="24.5846" height="16.1336" fill="white"/>
<path d="M35.9121 42.4702L48.9573 29.425L46.8369 27.3507L35.9121 38.2754L30.3806 32.7439L28.3063 34.8182L35.9121 42.4702ZM38.6318 52.5191C36.1119 52.5191 33.7302 52.0351 31.4869 51.0671C29.2435 50.0991 27.2845 48.7776 25.6096 47.1028C23.9348 45.428 22.6134 43.4689 21.6454 41.2256C20.6774 38.9822 20.1934 36.6006 20.1934 34.0807C20.1934 31.53 20.6774 29.133 21.6454 26.8897C22.6134 24.6464 23.9348 22.695 25.6096 21.0355C27.2845 19.3761 29.2435 18.0623 31.4869 17.0943C33.7302 16.1263 36.1119 15.6423 38.6318 15.6423C41.1824 15.6423 43.5794 16.1263 45.8228 17.0943C48.0661 18.0623 50.0175 19.3761 51.6769 21.0355C53.3364 22.695 54.6501 24.6464 55.6182 26.8897C56.5862 29.133 57.0702 31.53 57.0702 34.0807C57.0702 36.6006 56.5862 38.9822 55.6182 41.2256C54.6501 43.4689 53.3364 45.428 51.6769 47.1028C50.0175 48.7776 48.0661 50.0991 45.8228 51.0671C43.5794 52.0351 41.1824 52.5191 38.6318 52.5191Z" fill="#159E1B"/>
<path d="M70.2412 30.1296H76.3873" stroke="#EF6363" strokeLinecap="round"/>
<path d="M4.76953 15.4228L7.8426 20.7455" stroke="#EF6363" strokeLinecap="round"/>
<path d="M8.24902 57.5114L4.27247 62.1978" stroke="#EF6363" strokeLinecap="round"/>
<path d="M55.2363 1L51.2598 5.68637" stroke="#EF6363" strokeLinecap="round"/>
<path d="M56.0488 55.5351L59.3036 60.7487" stroke="#EF6363" strokeLinecap="round"/>
<circle cx="64.973" cy="18.2764" r="3.51208" fill="#70E937"/>
<circle cx="2.63406" cy="37.5928" r="2.63406" fill="#8D64FF"/>
<circle cx="21.0727" cy="5.98409" r="4.3901" fill="#8D64FF"/>
<circle cx="34.2424" cy="66.5674" r="1.75604" fill="#70E937"/>
<circle cx="71.9973" cy="56.0312" r="2.63406" fill="#8D64FF"/>
</svg>
