<svg width="243" height="68" viewBox="0 0 243 68" fill="none" xmlns="http://www.w3.org/2000/svg">
<path d="M124.549 28.121H129.674V18.9679H133.31V15.2683H120.913V18.9679H124.549V28.121Z" fill="#008080"/>
<path d="M137.089 28.121L139.702 20.435L142.31 28.121H147.323L142.41 15.2683H136.99L132.079 28.121H137.089Z" fill="#008080"/>
<path d="M149.729 28.121H154.854V18.9679H158.49V15.2683H146.094V18.9679H149.729V28.121Z" fill="#008080"/>
<path d="M162.27 28.121L164.882 20.435L167.491 28.121H172.504L167.594 15.2683H162.17L157.259 28.121H162.27Z" fill="#008080"/>
<path d="M211.456 37.3099C212.09 38.7651 212.926 40.3397 213.759 41.7431L217.111 47.396H219.54V34.5433H217.37V39.0283C217.37 40.9936 217.413 42.6479 217.582 44.3542L217.537 44.3662C216.944 42.9709 216.2 41.476 215.351 40.0607L212.033 34.5433H209.353V47.396H211.521V42.7995C211.521 40.6906 211.489 38.9923 211.397 37.3219L211.456 37.3099Z" fill="#008080"/>
<path d="M199.815 43.7642H203.894L205.056 47.396H207.573L203.403 34.5433H200.42L196.299 47.396H198.724L199.815 43.7642ZM201.19 38.817C201.416 38.0516 201.612 37.1625 201.799 36.409H201.838C202.034 37.1546 202.244 38.0316 202.488 38.8248L203.499 41.9942H200.19L201.19 38.817Z" fill="#008080"/>
<path d="M161.593 45.6539C160.399 45.6539 159.248 45.271 158.49 44.8326L157.968 46.7781C158.669 47.2087 160.079 47.5992 161.438 47.5992C164.75 47.5992 166.307 45.8053 166.307 43.7363C166.307 41.8906 165.237 40.7664 163.007 39.9172C161.294 39.2635 160.55 38.797 160.55 37.8122C160.55 37.0549 161.182 36.2655 162.673 36.2655C163.878 36.2655 164.776 36.6323 165.237 36.8754L165.799 34.9819C165.129 34.643 164.11 34.3479 162.72 34.3479C159.936 34.3479 158.176 35.9347 158.176 38.0396C158.176 39.8812 159.531 41.0215 161.654 41.7749C163.274 42.3649 163.927 42.9389 163.927 43.9077C163.927 44.9521 163.087 45.6539 161.593 45.6539Z" fill="#008080"/>
<path d="M127.886 36.2814C128.933 36.2814 129.79 36.5128 130.387 36.7837L130.897 34.914C130.419 34.655 129.332 34.344 127.787 34.344C123.864 34.344 120.913 36.8954 120.913 41.121C120.913 45.0319 123.394 47.5992 127.468 47.5992C129.021 47.5992 130.244 47.2923 130.797 47.0133L130.411 45.1635C129.794 45.4425 128.802 45.63 127.85 45.63C125.027 45.63 123.382 43.8361 123.382 41.0015C123.382 37.9159 125.266 36.2814 127.886 36.2814Z" fill="#008080"/>
<path d="M193.44 47.396V36.5167H197.139V34.5433H187.427V36.5167H191.095V47.396H193.44Z" fill="#008080"/>
<path d="M240.312 34.5433L238.767 37.8362C238.329 38.7691 237.976 39.5665 237.656 40.3876H237.616C237.267 39.5186 236.931 38.785 236.497 37.8403L234.967 34.5433H232.283L236.346 42.0461V47.396H238.692V41.9823L242.957 34.5474H240.312V34.5433Z" fill="#008080"/>
<path d="M137.694 34.3362C134.07 34.3362 131.582 37.1227 131.582 41.0694C131.582 44.8326 133.875 47.6113 137.507 47.6113H137.527C141.044 47.6113 143.652 45.1476 143.652 40.8421C143.644 37.1665 141.438 34.3362 137.694 34.3362ZM137.603 45.7296H137.583C135.341 45.7296 134.031 43.5689 134.039 41.0135C134.035 38.4502 135.269 36.2137 137.611 36.2137C139.952 36.2137 141.155 38.506 141.155 40.9298C141.151 43.6168 139.869 45.7296 137.603 45.7296Z" fill="#008080"/>
<path d="M228.533 36.2814C229.579 36.2814 230.435 36.5128 231.034 36.7837L231.543 34.914C231.066 34.655 229.978 34.344 228.433 34.344C224.511 34.344 221.56 36.8954 221.56 41.121C221.56 45.0319 224.04 47.5992 228.114 47.5992C229.668 47.5992 230.891 47.2963 231.445 47.0133L231.058 45.1635C230.439 45.4425 229.448 45.63 228.497 45.63C225.674 45.63 224.028 43.8361 224.028 41.0015C224.028 37.9159 225.911 36.2814 228.533 36.2814Z" fill="#008080"/>
<path d="M183.447 34.5433H181.103V47.396H188.729V45.4265H183.447V34.5433Z" fill="#008080"/>
<path d="M178.434 41.8866V34.5472H176.088V42.0419C176.088 44.5616 175.073 45.7216 173.384 45.7216C171.795 45.7216 170.753 44.5535 170.753 42.0419V34.5472H168.406V41.9025C168.406 45.9449 170.338 47.6151 173.298 47.6151C176.4 47.6112 178.434 45.8452 178.434 41.8866Z" fill="#008080"/>
<path d="M155.841 34.5433H153.672V39.0283C153.672 40.9936 153.715 42.6479 153.884 44.3542L153.838 44.3662C153.245 42.9709 152.501 41.4758 151.653 40.0607L148.335 34.5433H145.654V47.396H147.826V42.7995C147.826 40.6906 147.795 38.9923 147.702 37.326L147.761 37.3141C148.395 38.7691 149.232 40.3438 150.064 41.747L153.416 47.3999H155.845V34.5433H155.841Z" fill="#008080"/>
<path d="M165.877 53.8224H163.533V66.6757H165.877V53.8224Z" fill="#008080"/>
<path d="M147.408 60.6475V60.5946C148.606 60.1685 149.721 59.0531 149.721 57.4096C149.721 56.3179 149.323 55.4323 148.626 54.8511C147.765 54.1332 146.285 53.8224 144.696 53.8224C143.107 53.8224 142.056 53.9339 141.167 54.0975V66.6757H143.477V61.433H144.647C145.971 61.4644 146.576 62.0024 146.943 63.6656C147.296 65.2521 147.602 66.3046 147.799 66.6757H150.188C149.933 66.177 149.586 64.7141 149.183 63.1197C148.865 61.8787 148.331 60.999 147.408 60.6475ZM144.855 59.7227H143.477V55.6915C143.712 55.6326 144.186 55.5757 144.922 55.5757C146.428 55.5796 147.404 56.2295 147.404 57.6217C147.404 58.8902 146.432 59.7227 144.855 59.7227Z" fill="#008080"/>
<path d="M157.782 59.6991C157.285 61.2582 156.818 62.8271 156.476 64.3429H156.437C156.101 62.7878 155.663 61.2857 155.178 59.6618L153.424 53.8184H150.868L155.023 66.6717H157.711L162.147 53.8184H159.649L157.782 59.6991Z" fill="#008080"/>
<path d="M182.106 60.9696H186.944V59.0571H182.106V55.7524H187.231V53.8224H179.76V66.6718H187.514V64.7416H182.106V60.9696Z" fill="#008080"/>
<path d="M174.867 55.556C175.913 55.556 176.769 55.7877 177.366 56.0587L177.877 54.1892C177.4 53.93 176.312 53.619 174.767 53.619C170.843 53.619 167.894 56.1706 167.894 60.3962C167.894 64.3076 170.374 66.874 174.448 66.874C176.002 66.874 177.223 66.5716 177.777 66.2889L177.392 64.4392C176.769 64.718 175.782 64.9046 174.831 64.9046C172.008 64.9046 170.362 63.1118 170.362 60.2764C170.362 57.1917 172.245 55.556 174.867 55.556Z" fill="#008080"/>
<path d="M125.951 59.1926C124.234 58.5387 123.494 58.0714 123.494 57.0876C123.494 56.3297 124.127 55.5403 125.612 55.5403C126.819 55.5403 127.715 55.9075 128.177 56.151L128.739 54.2569C128.069 53.918 127.05 53.6231 125.66 53.6231C122.876 53.6231 121.116 55.2104 121.116 57.3154C121.116 59.1572 122.47 60.2961 124.593 61.0501C126.214 61.6392 126.867 62.2145 126.867 63.1825C126.867 64.235 126.03 64.936 124.533 64.936C123.338 64.936 122.187 64.5551 121.431 64.1152L120.909 66.0611C121.61 66.4912 123.02 66.8819 124.378 66.8819C127.691 66.8819 129.248 65.0892 129.248 63.0196C129.252 61.166 128.181 60.0408 125.951 59.1926Z" fill="#008080"/>
<path d="M133.704 60.9696H138.543V59.0571H133.704V55.7524H138.834V53.8224H131.359V66.6718H139.116V64.7416H133.704V60.9696Z" fill="#008080"/>
<path d="M194.045 59.1926C192.332 58.5387 191.588 58.0714 191.588 57.0876C191.588 56.3297 192.22 55.5403 193.707 55.5403C194.913 55.5403 195.81 55.9075 196.271 56.151L196.833 54.2569C196.163 53.918 195.144 53.6231 193.754 53.6231C190.972 53.6231 189.21 55.2104 189.21 57.3154C189.21 59.1572 190.565 60.2961 192.688 61.0501C194.308 61.6392 194.962 62.2145 194.962 63.1825C194.962 64.235 194.125 64.936 192.627 64.936C191.433 64.936 190.282 64.5551 189.525 64.1152L189.004 66.0611C189.705 66.4912 191.115 66.8819 192.472 66.8819C195.786 66.8819 197.343 65.0892 197.343 63.0196C197.347 61.166 196.275 60.0408 194.045 59.1926Z" fill="#008080"/>
<path d="M0 24.0588C0 18.2384 3.77928 14.7462 9.30279 14.7462V4.85158C9.30279 1.94138 7.36338 0 4.65149 0C1.93941 0 0 1.94138 0 4.85158V24.0588Z" fill="url(#paint0_linear_1_6184)"/>
<path d="M16.4751 67.0291C18.8008 67.0291 20.9314 66.6423 22.8708 65.961C13.0821 67.6123 9.30279 60.9185 9.30279 53.3519V22.3128H20.6406C23.2571 22.3128 25.0013 20.762 25.0013 18.5294C25.0013 16.297 23.2571 14.7462 20.6406 14.7462H9.30279C3.77928 14.7462 0 18.2384 0 24.0588V50.7329C0 61.4055 6.10493 67.0291 16.4751 67.0291Z" fill="url(#paint1_linear_1_6184)"/>
<path d="M22.871 65.961C26.7459 64.506 29.7526 61.7923 31.688 57.8122L27.3274 49.9554C25.3879 55.776 21.9988 58.8804 17.3475 58.8804C12.5008 58.8804 9.30298 56.0666 9.30298 49.6644V53.3519C9.30298 60.9186 13.0823 67.6124 22.871 65.961Z" fill="url(#paint2_linear_1_6184)"/>
<path d="M62.6945 64.4098C40.6003 67.7066 33.6231 55.8761 33.6231 40.6469C33.6231 29.5882 40.4051 22.0216 50.1939 22.0216C53.778 22.0216 56.7848 22.799 59.4967 24.0588C60.7551 24.6408 61.8223 24.8362 62.7902 24.8362C65.1158 24.8362 66.6651 23.2854 66.6651 20.9572C66.6651 19.5022 65.7928 18.0472 63.7578 17.0784C60.0741 15.2365 55.3272 14.1682 50.1899 14.1682C34.8777 14.1682 24.3164 25.0316 24.3164 40.8422C24.3164 56.3611 34.4914 67.1293 50.8668 67.1293C55.3311 67.1254 59.2061 66.2516 62.6945 64.4098Z" fill="url(#paint3_linear_1_6184)"/>
<path d="M24.3242 40.8383C24.3242 25.0274 34.8855 14.1642 50.1978 14.1642C55.335 14.1642 60.082 15.2326 63.7658 17.0744C65.8007 18.043 66.6729 19.4982 66.6729 20.9532C66.6729 23.2814 65.1238 24.8323 62.798 24.8323C61.8303 24.8323 60.7631 24.6369 59.5047 24.0549C56.2112 22.504 53.0133 22.0177 50.2017 22.0177C36.7253 22.0216 24.3242 30.5568 24.3242 40.8383Z" fill="url(#paint4_linear_1_6184)"/>
<path d="M82.1723 17.2696C81.3001 18.1428 80.8143 19.2112 80.8143 20.4708C80.8143 23.672 83.817 28.424 90.7942 33.2756L98.739 38.805C104.553 42.8792 106.879 46.7583 106.879 52.5785C106.879 56.7479 105.23 60.3412 102.518 62.8605C103.486 61.9867 104.067 60.8223 104.067 59.2711C104.067 55.8761 100.674 50.5415 93.4065 45.4984L86.1388 40.4554C80.0338 36.1858 77.6125 32.2114 77.6125 26.7776C77.6125 23.5764 78.7754 20.6662 80.7148 18.5333C81.2045 18.043 81.6864 17.6564 82.1723 17.2696Z" fill="url(#paint5_linear_1_6184)"/>
<path d="M75.8762 60.8223C75.8762 62.3735 76.6528 63.638 78.6879 64.6061C81.4995 65.9649 86.0512 67.1293 90.1213 67.1293C95.2586 67.1293 99.5197 65.578 102.526 62.8605C103.494 61.9867 104.075 60.8223 104.075 59.2711C104.075 55.8761 100.683 50.5414 93.4146 45.4984C96.7081 47.8266 98.0661 49.768 98.0661 52.5785C98.0661 56.7479 94.7726 59.5637 90.0218 59.5637C85.4659 59.5637 81.591 57.2349 79.4605 57.2349C77.3299 57.2349 75.8762 58.6898 75.8762 60.8223Z" fill="url(#paint6_linear_1_6184)"/>
<path d="M90.7982 33.2756C87.6957 31.0432 86.3418 29.006 86.3418 26.5822C86.3418 23.4768 88.8627 21.5394 92.4468 21.5394C97.0026 21.5394 99.1331 23.6722 101.845 23.6722C103.976 23.6722 105.429 22.217 105.429 20.0842C105.429 18.5335 104.653 17.2698 102.618 16.301C99.42 14.7502 95.9313 14.1682 92.1521 14.1682C88.1776 14.1682 84.6891 15.3323 82.1722 17.2737C81.3002 18.1467 80.8142 19.2151 80.8142 20.4749C80.8142 23.6722 83.821 28.424 90.7982 33.2756Z" fill="url(#paint7_linear_1_6184)"/>
<path d="M33.627 40.6469C33.627 55.8761 40.6041 67.7125 62.6984 64.4098C69.7711 60.7222 74.8128 53.2563 78.2973 41.8109L80.3324 35.1175C78.393 32.5941 77.6203 29.7835 77.6203 26.7737C77.6203 23.5725 78.7831 20.6623 80.7225 18.5295C77.8155 21.6351 75.3942 26.1917 73.4548 32.5941L71.2246 39.9652C67.2503 52.9653 60.9541 59.173 51.1653 59.173C40.4089 59.173 33.627 51.7055 33.627 40.6469Z" fill="url(#paint8_linear_1_6184)"/>
<defs>
<linearGradient id="paint0_linear_1_6184" x1="4.65267" y1="2.56206" x2="4.65267" y2="21.7683" gradientUnits="userSpaceOnUse">
<stop stop-color="#FFC708"/>
<stop offset="0.9997" stop-color="#F05731"/>
<stop offset="1" stop-color="#F05731"/>
</linearGradient>
<linearGradient id="paint1_linear_1_6184" x1="15.1988" y1="17.3208" x2="10.1711" y2="53.6594" gradientUnits="userSpaceOnUse">
<stop stop-color="#F80000"/>
<stop offset="1" stop-color="#EE3984"/>
</linearGradient>
<linearGradient id="paint2_linear_1_6184" x1="8.23264" y1="60.3098" x2="34.506" y2="51.9822" gradientUnits="userSpaceOnUse">
<stop stop-color="#EE3984"/>
<stop offset="0.9997" stop-color="#7800DA"/>
<stop offset="1" stop-color="#7800DA"/>
</linearGradient>
<linearGradient id="paint3_linear_1_6184" x1="43.9397" y1="27.4042" x2="53.5563" y2="61.2798" gradientUnits="userSpaceOnUse">
<stop stop-color="#FF0000"/>
<stop offset="0.9994" stop-color="#EE3984"/>
<stop offset="1" stop-color="#EE3984"/>
</linearGradient>
<linearGradient id="paint4_linear_1_6184" x1="24.3234" y1="27.5021" x2="66.6688" y2="27.5021" gradientUnits="userSpaceOnUse">
<stop stop-color="#FFC708"/>
<stop offset="1" stop-color="#FA3B00"/>
</linearGradient>
<linearGradient id="paint5_linear_1_6184" x1="77.6184" y1="40.0639" x2="106.882" y2="40.0639" gradientUnits="userSpaceOnUse">
<stop stop-color="#FF0000"/>
<stop offset="1" stop-color="#EE3984"/>
</linearGradient>
<linearGradient id="paint6_linear_1_6184" x1="101.225" y1="54.2031" x2="75.458" y2="61.0167" gradientUnits="userSpaceOnUse">
<stop stop-color="#EE3984"/>
<stop offset="1" stop-color="#7800DA"/>
</linearGradient>
<linearGradient id="paint7_linear_1_6184" x1="80.8162" y1="23.7191" x2="105.429" y2="23.7191" gradientUnits="userSpaceOnUse">
<stop stop-color="#FFC708"/>
<stop offset="1" stop-color="#F05731"/>
</linearGradient>
<linearGradient id="paint8_linear_1_6184" x1="48.5526" y1="55.2183" x2="66.5132" y2="25.9044" gradientUnits="userSpaceOnUse">
<stop stop-color="#EE3984"/>
<stop offset="1" stop-color="#7800DA"/>
</linearGradient>
</defs>
</svg>
