<svg width="23" height="23" viewBox="0 0 23 23" fill="none" xmlns="http://www.w3.org/2000/svg">
<path d="M9.80375 16.7325L17.94 8.59625L16.6175 7.3025L9.80375 14.1163L6.35375 10.6663L5.06 11.96L9.80375 16.7325ZM11.5 23C9.92833 23 8.44292 22.6981 7.04375 22.0944C5.64458 21.4906 4.42271 20.6665 3.37812 19.6219C2.33354 18.5773 1.50938 17.3554 0.905625 15.9563C0.301875 14.5571 0 13.0717 0 11.5C0 9.90917 0.301875 8.41417 0.905625 7.015C1.50938 5.61583 2.33354 4.39875 3.37812 3.36375C4.42271 2.32875 5.64458 1.50938 7.04375 0.905625C8.44292 0.301875 9.92833 0 11.5 0C13.0908 0 14.5858 0.301875 15.985 0.905625C17.3842 1.50938 18.6012 2.32875 19.6362 3.36375C20.6712 4.39875 21.4906 5.61583 22.0944 7.015C22.6981 8.41417 23 9.90917 23 11.5C23 13.0717 22.6981 14.5571 22.0944 15.9563C21.4906 17.3554 20.6712 18.5773 19.6362 19.6219C18.6012 20.6665 17.3842 21.4906 15.985 22.0944C14.5858 22.6981 13.0908 23 11.5 23Z" fill="#159E1B"/>
</svg>
