<svg width="173" height="48" viewBox="0 0 173 48" fill="none" xmlns="http://www.w3.org/2000/svg">
<path d="M88.5192 19.9863H92.1619V13.4809H94.7459V10.8516H85.9351V13.4809H88.5192V19.9863Z" fill="white"/>
<path d="M97.4332 19.9863L99.2898 14.5237L101.144 19.9863H104.707L101.215 10.8516H97.3624L93.8726 19.9863H97.4332Z" fill="white"/>
<path d="M106.415 19.9863H110.058V13.4809H112.642V10.8516H103.832V13.4809H106.415V19.9863Z" fill="white"/>
<path d="M115.329 19.9863L117.185 14.5237L119.04 19.9863H122.603L119.112 10.8516H115.258L111.768 19.9863H115.329Z" fill="white"/>
<path d="M150.286 26.5171C150.737 27.5514 151.331 28.6705 151.923 29.6679L154.305 33.6855H156.032V24.5508H154.49V27.7384C154.49 29.1352 154.52 30.3109 154.64 31.5237L154.608 31.5322C154.187 30.5405 153.658 29.4781 153.055 28.4722L150.696 24.5508H148.792V33.6855H150.332V30.4187C150.332 28.9198 150.31 27.7128 150.244 26.5256L150.286 26.5171Z" fill="white"/>
<path d="M142.014 31.1043H144.912L145.738 33.6855H147.527L144.563 24.5508H142.443L139.514 33.6855H141.238L142.014 31.1043ZM142.99 27.5882C143.151 27.0442 143.291 26.4123 143.423 25.8768H143.451C143.591 26.4067 143.74 27.03 143.913 27.5938L144.632 29.8464H142.28L142.99 27.5882Z" fill="white"/>
<path d="M114.848 32.4474C113.999 32.4474 113.181 32.1753 112.643 31.8636L112.271 33.2463C112.77 33.5524 113.772 33.83 114.737 33.83C117.092 33.83 118.198 32.555 118.198 31.0845C118.198 29.7727 117.438 28.9737 115.852 28.3701C114.636 27.9056 114.107 27.574 114.107 26.8741C114.107 26.3358 114.556 25.7748 115.615 25.7748C116.472 25.7748 117.11 26.0355 117.438 26.2083L117.837 24.8626C117.361 24.6217 116.637 24.4119 115.649 24.4119C113.67 24.4119 112.419 25.5397 112.419 27.0357C112.419 28.3446 113.382 29.155 114.891 29.6905C116.042 30.1098 116.507 30.5178 116.507 31.2063C116.507 31.9486 115.91 32.4474 114.848 32.4474Z" fill="white"/>
<path d="M90.8911 25.7861C91.6355 25.7861 92.2439 25.9504 92.6686 26.143L93.0309 24.8142C92.6912 24.6301 91.9185 24.4091 90.8203 24.4091C88.0324 24.4091 85.9351 26.2224 85.9351 29.2257C85.9351 32.0052 87.6983 33.8299 90.5938 33.8299C91.6977 33.8299 92.5666 33.6118 92.9601 33.4135L92.6855 32.0987C92.2469 32.297 91.5421 32.4303 90.8656 32.4303C88.8589 32.4303 87.69 31.1553 87.69 29.1407C87.69 26.9477 89.0287 25.7861 90.8911 25.7861Z" fill="white"/>
<path d="M137.483 33.6855V25.9533H140.112V24.5508H133.209V25.9533H135.816V33.6855H137.483Z" fill="white"/>
<path d="M170.795 24.5508L169.697 26.8911C169.386 27.5541 169.135 28.1209 168.907 28.7045H168.879C168.631 28.0868 168.392 27.5655 168.084 26.8941L166.997 24.5508H165.089L167.976 29.8832V33.6855H169.644V29.8378L172.675 24.5537H170.795V24.5508Z" fill="white"/>
<path d="M97.8631 24.4036C95.2874 24.4036 93.5186 26.384 93.5186 29.1891C93.5186 31.8636 95.1488 33.8385 97.7301 33.8385H97.7443C100.243 33.8385 102.097 32.0875 102.097 29.0275C102.092 26.4151 100.524 24.4036 97.8631 24.4036ZM97.798 32.5011H97.7839C96.1903 32.5011 95.2592 30.9655 95.2648 29.1493C95.262 27.3275 96.1394 25.738 97.8037 25.738C99.4679 25.738 100.323 27.3672 100.323 29.0898C100.32 30.9995 99.4085 32.5011 97.798 32.5011Z" fill="white"/>
<path d="M162.424 25.7861C163.168 25.7861 163.777 25.9504 164.202 26.143L164.564 24.8142C164.225 24.6301 163.451 24.4091 162.353 24.4091C159.566 24.4091 157.469 26.2224 157.469 29.2257C157.469 32.0052 159.231 33.8299 162.127 33.8299C163.231 33.8299 164.1 33.6146 164.494 33.4135L164.219 32.0987C163.779 32.297 163.075 32.4303 162.399 32.4303C160.392 32.4303 159.223 31.1553 159.223 29.1407C159.223 26.9477 160.561 25.7861 162.424 25.7861Z" fill="white"/>
<path d="M130.38 24.5508H128.714V33.6855H134.134V32.2858H130.38V24.5508Z" fill="white"/>
<path d="M126.817 29.7698V24.5535H125.149V29.8802C125.149 31.671 124.428 32.4955 123.228 32.4955C122.099 32.4955 121.358 31.6653 121.358 29.8802V24.5535H119.69V29.7811C119.69 32.6542 121.063 33.8412 123.166 33.8412C125.371 33.8384 126.817 32.5833 126.817 29.7698Z" fill="white"/>
<path d="M110.76 24.5508H109.218V27.7384C109.218 29.1352 109.249 30.3109 109.369 31.5237L109.337 31.5322C108.915 30.5405 108.386 29.4779 107.783 28.4722L105.425 24.5508H103.52V33.6855H105.064V30.4187C105.064 28.9198 105.041 27.7128 104.976 26.5286L105.017 26.52C105.468 27.5542 106.063 28.6734 106.654 29.6706L109.037 33.6883H110.763V24.5508H110.76Z" fill="white"/>
<path d="M117.893 38.2529H116.227V47.388H117.893V38.2529Z" fill="white"/>
<path d="M104.766 43.1037V43.066C105.618 42.7632 106.41 41.9705 106.41 40.8024C106.41 40.0265 106.127 39.3971 105.632 38.984C105.02 38.4738 103.968 38.2529 102.839 38.2529C101.709 38.2529 100.962 38.3321 100.331 38.4484V47.388H101.973V43.6619H102.804C103.745 43.6842 104.175 44.0666 104.436 45.2486C104.687 46.3763 104.905 47.1243 105.044 47.388H106.743C106.561 47.0336 106.314 45.9939 106.028 44.8607C105.802 43.9787 105.422 43.3535 104.766 43.1037ZM102.952 42.4464H101.973V39.5813C102.14 39.5394 102.476 39.499 103 39.499C104.07 39.5018 104.764 39.9637 104.764 40.9531C104.764 41.8547 104.073 42.4464 102.952 42.4464Z" fill="white"/>
<path d="M112.139 42.4296C111.786 43.5377 111.454 44.6527 111.211 45.7301H111.183C110.944 44.6248 110.633 43.5572 110.288 42.4031L109.042 38.2501H107.225L110.178 47.3852H112.089L115.241 38.2501H113.466L112.139 42.4296Z" fill="white"/>
<path d="M129.428 43.3325H132.867V41.9733H129.428V39.6246H133.07V38.2529H127.76V47.3852H133.271V46.0134H129.428V43.3325Z" fill="white"/>
<path d="M124.282 39.485C125.026 39.485 125.634 39.6497 126.058 39.8423L126.421 38.5135C126.082 38.3293 125.309 38.1083 124.211 38.1083C121.422 38.1083 119.326 39.9218 119.326 42.925C119.326 45.705 121.089 47.529 123.985 47.529C125.088 47.529 125.956 47.3141 126.35 47.1131L126.076 45.7985C125.634 45.9966 124.932 46.1292 124.257 46.1292C122.25 46.1292 121.08 44.8551 121.08 42.8399C121.08 40.6475 122.419 39.485 124.282 39.485Z" fill="white"/>
<path d="M89.5158 42.0696C88.296 41.6049 87.7694 41.2728 87.7694 40.5736C87.7694 40.0349 88.2195 39.4739 89.2752 39.4739C90.1328 39.4739 90.7696 39.7349 91.098 39.9079L91.4971 38.5617C91.0215 38.3209 90.2969 38.1113 89.3092 38.1113C87.3308 38.1113 86.0797 39.2394 86.0797 40.7355C86.0797 42.0445 87.0421 42.8539 88.5507 43.3898C89.7026 43.8085 90.1667 44.2174 90.1667 44.9054C90.1667 45.6534 89.5724 46.1516 88.5083 46.1516C87.6591 46.1516 86.8411 45.8809 86.3034 45.5683L85.9326 46.9513C86.4307 47.2569 87.4327 47.5346 88.3979 47.5346C90.7527 47.5346 91.8594 46.2605 91.8594 44.7896C91.8622 43.4722 91.1008 42.6725 89.5158 42.0696Z" fill="white"/>
<path d="M95.0275 43.3325H98.4663V41.9733H95.0275V39.6246H98.673V38.2529H93.3604V47.3852H98.8739V46.0134H95.0275V43.3325Z" fill="white"/>
<path d="M137.912 42.0696C136.695 41.6049 136.166 41.2728 136.166 40.5736C136.166 40.0349 136.616 39.4739 137.672 39.4739C138.529 39.4739 139.167 39.7349 139.495 39.9079L139.894 38.5617C139.418 38.3209 138.694 38.1113 137.705 38.1113C135.728 38.1113 134.476 39.2394 134.476 40.7355C134.476 42.0445 135.439 42.8539 136.948 43.3898C138.099 43.8085 138.564 44.2174 138.564 44.9054C138.564 45.6534 137.969 46.1516 136.904 46.1516C136.056 46.1516 135.238 45.8809 134.699 45.5683L134.33 46.9513C134.828 47.2569 135.83 47.5346 136.794 47.5346C139.15 47.5346 140.257 46.2605 140.257 44.7896C140.259 43.4722 139.497 42.6725 137.912 42.0696Z" fill="white"/>
<path d="M0 17.0992C0 12.9625 2.68602 10.4805 6.61172 10.4805V3.44814C6.61172 1.37979 5.23333 0 3.30593 0C1.37839 0 0 1.37979 0 3.44814V17.0992Z" fill="white"/>
<path d="M11.7093 47.6392C13.3622 47.6392 14.8765 47.3643 16.2549 46.88C9.29774 48.0537 6.61172 43.2963 6.61172 37.9185V15.8582H14.6698C16.5294 15.8582 17.769 14.756 17.769 13.1693C17.769 11.5827 16.5294 10.4805 14.6698 10.4805H6.61172C2.68602 10.4805 0 12.9625 0 17.0992V36.0571C0 43.6423 4.33892 47.6392 11.7093 47.6392Z" fill="white"/>
<path d="M16.2545 46.8801C19.0085 45.846 21.1453 43.9173 22.5209 41.0885L19.4217 35.5045C18.0433 39.6413 15.6346 41.8477 12.3288 41.8477C8.88413 41.8477 6.61133 39.8479 6.61133 35.2977V37.9185C6.61133 43.2963 9.29735 48.0537 16.2545 46.8801Z" fill="white"/>
<path d="M44.558 45.7775C28.8551 48.1206 23.8962 39.7124 23.8962 28.8886C23.8962 21.029 28.7164 15.6512 35.6735 15.6512C38.2208 15.6512 40.3578 16.2037 42.2852 17.0991C43.1796 17.5128 43.9381 17.6516 44.626 17.6516C46.2789 17.6516 47.38 16.5494 47.38 14.8947C47.38 13.8606 46.76 12.8265 45.3137 12.1379C42.6956 10.8289 39.3219 10.0696 35.6707 10.0696C24.7879 10.0696 17.2817 17.7905 17.2817 29.0275C17.2817 40.0571 24.5134 47.7103 36.1517 47.7103C39.3247 47.7076 42.0787 47.0865 44.558 45.7775Z" fill="white"/>
<path d="M17.2871 29.0247C17.2871 17.7875 24.7932 10.0668 35.6761 10.0668C39.3273 10.0668 42.701 10.8261 45.3192 12.1351C46.7654 12.8236 47.3853 13.8578 47.3853 14.8919C47.3853 16.5466 46.2844 17.6488 44.6313 17.6488C43.9436 17.6488 43.1851 17.51 42.2907 17.0963C39.95 15.9941 37.6772 15.6484 35.6789 15.6484C26.1009 15.6512 17.2871 21.7174 17.2871 29.0247Z" fill="url(#paint0_linear_1_3121)"/>
<path d="M58.4019 12.2739C57.782 12.8945 57.4367 13.6538 57.4367 14.5491C57.4367 16.8243 59.5708 20.2017 64.5296 23.6498L70.1762 27.5797C74.3086 30.4753 75.9615 33.2322 75.9615 37.3688C75.9615 40.3321 74.7898 42.886 72.8622 44.6765C73.5499 44.0555 73.9633 43.2279 73.9633 42.1254C73.9633 39.7125 71.5518 35.9211 66.3863 32.3368L61.2209 28.7526C56.882 25.7182 55.1611 22.8934 55.1611 19.0315C55.1611 16.7563 55.9876 14.688 57.366 13.1721C57.714 12.8236 58.0565 12.5489 58.4019 12.2739Z" fill="url(#paint1_linear_1_3121)"/>
<path d="M53.9272 43.2279C53.9272 44.3304 54.4792 45.2291 55.9255 45.9171C57.9238 46.8829 61.1589 47.7104 64.0516 47.7104C67.7028 47.7104 70.7313 46.6079 72.8681 44.6765C73.5559 44.0555 73.9691 43.2279 73.9691 42.1254C73.9691 39.7125 71.5577 35.9211 66.3922 32.3369C68.733 33.9916 69.6981 35.3713 69.6981 37.3688C69.6981 40.3321 67.3574 42.3334 63.9808 42.3334C60.7429 42.3334 57.9889 40.6782 56.4747 40.6782C54.9604 40.6782 53.9272 41.7123 53.9272 43.2279Z" fill="white"/>
<path d="M64.5329 23.6497C62.3279 22.0631 61.3656 20.6152 61.3656 18.8926C61.3656 16.6855 63.1573 15.3085 65.7046 15.3085C68.9425 15.3085 70.4567 16.8243 72.3842 16.8243C73.8986 16.8243 74.9316 15.7901 74.9316 14.2742C74.9316 13.1722 74.3796 12.274 72.9334 11.5854C70.6606 10.4832 68.1811 10.0696 65.4951 10.0696C62.6703 10.0696 60.191 10.897 58.4022 12.2768C57.7824 12.8973 57.437 13.6566 57.437 14.552C57.437 16.8243 59.574 20.2016 64.5329 23.6497Z" fill="url(#paint2_linear_1_3121)"/>
<path d="M23.8994 28.8887C23.8994 39.7125 28.8582 48.1249 44.5612 45.7776C49.588 43.1567 53.1712 37.8505 55.6477 29.716L57.0941 24.9588C55.7157 23.1654 55.1665 21.1678 55.1665 19.0287C55.1665 16.7535 55.993 14.6852 57.3714 13.1693C55.3053 15.3765 53.5844 18.615 52.206 23.1654L50.621 28.4042C47.7963 37.6437 43.3215 42.0556 36.3644 42.0556C28.7195 42.0556 23.8994 36.7483 23.8994 28.8887Z" fill="white"/>
<defs>
<linearGradient id="paint0_linear_1_3121" x1="17.2866" y1="19.5464" x2="47.3824" y2="19.5464" gradientUnits="userSpaceOnUse">
<stop stop-color="white"/>
<stop offset="1" stop-color="white"/>
</linearGradient>
<linearGradient id="paint1_linear_1_3121" x1="55.1653" y1="28.4744" x2="75.964" y2="28.4744" gradientUnits="userSpaceOnUse">
<stop stop-color="white"/>
<stop offset="1" stop-color="white"/>
</linearGradient>
<linearGradient id="paint2_linear_1_3121" x1="57.4384" y1="16.8577" x2="74.9313" y2="16.8577" gradientUnits="userSpaceOnUse">
<stop stop-color="#FFC708"/>
<stop offset="0.0001" stop-color="white"/>
<stop offset="1" stop-color="white"/>
</linearGradient>
</defs>
</svg>
