<svg width="24" height="19" viewBox="0 0 24 19" fill="none" xmlns="http://www.w3.org/2000/svg">
<path d="M0.884615 18.5769C0.633974 18.5769 0.423878 18.4921 0.254327 18.3226C0.0847756 18.153 0 17.9429 0 17.6923C0 17.4416 0.0847756 17.2315 0.254327 17.062C0.423878 16.8924 0.633974 16.8077 0.884615 16.8077H18.5769C18.8276 16.8077 19.0377 16.8924 19.2072 17.062C19.3768 17.2315 19.4615 17.4416 19.4615 17.6923C19.4615 17.9429 19.3768 18.153 19.2072 18.3226C19.0377 18.4921 18.8276 18.5769 18.5769 18.5769H0.884615ZM2.65385 15.923C2.16731 15.923 1.7508 15.7498 1.40433 15.4033C1.05785 15.0569 0.884615 14.6403 0.884615 14.1538V4.42304C0.884615 3.9365 1.05785 3.51999 1.40433 3.17352C1.7508 2.82705 2.16731 2.65381 2.65385 2.65381H16.8077C17.2942 2.65381 17.7107 2.82705 18.0572 3.17352C18.4037 3.51999 18.5769 3.9365 18.5769 4.42304V14.1538C18.5769 14.6403 18.4037 15.0569 18.0572 15.4033C17.7107 15.7498 17.2942 15.923 16.8077 15.923H2.65385ZM2.65385 14.1538H16.8077V4.42304H2.65385V14.1538Z" fill="#008080"/>
<circle cx="16.8077" cy="5.30769" r="4.30769" fill="#FFFBFB" stroke="#008080" strokeWidth="2"/>
<path d="M20.3462 8.84619L23 11.5" stroke="#008080" strokeWidth="2" strokeLinecap="round"/>
</svg>
