<svg width="22" height="26" viewBox="0 0 22 26" fill="none" xmlns="http://www.w3.org/2000/svg">
<path d="M10 22H18V20H10V22ZM10 18H18V16H10V18ZM8 26C7.45 26 6.97917 25.8042 6.5875 25.4125C6.19583 25.0208 6 24.55 6 24V8C6 7.45 6.19583 6.97917 6.5875 6.5875C6.97917 6.19583 7.45 6 8 6H16L22 12V24C22 24.55 21.8042 25.0208 21.4125 25.4125C21.0208 25.8042 20.55 26 20 26H8ZM15 13V8H8V24H20V13H15Z" fill="white"/>
<path d="M1.375 7.71429V8.33929H2H5.66071V12V12.625H6.28571H7.71429H8.33929V12V8.33929H12H12.625V7.71429V6.28571V5.66071H12H8.33929V2V1.375H7.71429H6.28571H5.66071V2V5.66071H2H1.375V6.28571V7.71429Z" fill="white"/>
<path d="M1.375 7.71429V8.33929H2H5.66071V12V12.625H6.28571H7.71429H8.33929V12V8.33929H12H12.625V7.71429V6.28571V5.66071H12H8.33929V2V1.375H7.71429H6.28571H5.66071V2V5.66071H2H1.375V6.28571V7.71429Z" stroke="#333333" strokeWidth="1.25"/>
<path d="M1.375 7.71429V8.33929H2H5.66071V12V12.625H6.28571H7.71429H8.33929V12V8.33929H12H12.625V7.71429V6.28571V5.66071H12H8.33929V2V1.375H7.71429H6.28571H5.66071V2V5.66071H2H1.375V6.28571V7.71429Z" stroke="#008080" strokeWidth="1.25"/>
</svg>
